<svg width="479" height="856" viewBox="0 0 479 856" fill="none" xmlns="http://www.w3.org/2000/svg">
<path d="M56.2617 734.194H432.728V758.646C432.728 791.783 405.865 818.646 372.728 818.646H116.262C83.1246 818.646 56.2617 791.783 56.2617 758.646V734.194Z" fill="#142731" fill-opacity="0.7"/>
<rect x="86.8301" y="662.514" width="317.808" height="49.2437" rx="24.6218" fill="#009DFF"/>
<g clip-path="url(#clip0_52_5420)">
<path d="M135.728 695.13L119.739 679.141L119.735 679.137C119.649 679.051 119.546 678.983 119.433 678.937C119.32 678.891 119.2 678.867 119.078 678.868C118.956 678.868 118.835 678.893 118.723 678.94C118.61 678.987 118.508 679.056 118.422 679.142C118.336 679.229 118.268 679.331 118.222 679.444C118.176 679.557 118.152 679.678 118.153 679.8C118.154 680.046 118.253 680.282 118.428 680.455L119.827 681.855C118.13 683.018 116.668 684.493 115.521 686.201C115.334 686.477 115.234 686.804 115.234 687.138C115.234 687.472 115.334 687.798 115.521 688.075C118.45 692.409 123.092 694.948 127.734 694.916C129.237 694.922 130.731 694.671 132.151 694.176L134.417 696.442C134.591 696.611 134.825 696.705 135.068 696.703C135.311 696.701 135.544 696.605 135.716 696.433C135.888 696.262 135.987 696.03 135.99 695.787C135.993 695.544 135.9 695.31 135.732 695.134L135.728 695.13ZM127.734 692.396C126.854 692.396 125.989 692.175 125.217 691.754C124.444 691.333 123.79 690.725 123.313 689.986C122.837 689.247 122.553 688.401 122.487 687.523C122.422 686.646 122.578 685.767 122.94 684.966L124.403 686.428C124.285 686.983 124.308 687.559 124.469 688.103C124.63 688.647 124.925 689.142 125.326 689.543C125.727 689.944 126.222 690.239 126.766 690.4C127.31 690.562 127.886 690.584 128.441 690.467L129.904 691.929C129.222 692.238 128.482 692.397 127.734 692.396Z" fill="white"/>
<path d="M139.946 686.199C137.018 681.862 132.376 679.323 127.734 679.355C126.23 679.349 124.737 679.6 123.317 680.095L125.563 682.341C126.538 681.9 127.624 681.766 128.676 681.958C129.729 682.15 130.698 682.658 131.454 683.414C132.211 684.171 132.718 685.14 132.91 686.192C133.102 687.245 132.968 688.331 132.527 689.305L135.64 692.418C137.338 691.255 138.799 689.78 139.946 688.072C140.134 687.796 140.234 687.469 140.234 687.135C140.234 686.801 140.134 686.475 139.946 686.199Z" fill="white"/>
<path d="M127.734 683.73C127.496 683.73 127.259 683.755 127.026 683.804L131.065 687.843C131.17 687.346 131.163 686.833 131.045 686.34C130.926 685.847 130.699 685.386 130.38 684.992C130.061 684.598 129.657 684.28 129.2 684.062C128.742 683.844 128.241 683.73 127.734 683.73Z" fill="white"/>
</g>
<g clip-path="url(#clip1_52_5420)">
<path d="M184.073 699.635C183.975 699.635 183.877 699.616 183.783 699.575C183.454 699.434 183.276 699.074 183.362 698.726L185.839 688.757H179.166C178.924 688.757 178.698 688.638 178.561 688.438C178.425 688.239 178.395 687.985 178.482 687.76L183.378 675.104C183.487 674.822 183.759 674.635 184.061 674.635H190.798C191.045 674.635 191.276 674.76 191.411 674.968C191.546 675.175 191.568 675.437 191.468 675.663L188.569 682.243H194.302C194.57 682.243 194.817 682.39 194.945 682.625C195.073 682.86 195.063 683.146 194.918 683.371L184.689 699.299C184.551 699.514 184.316 699.635 184.073 699.635Z" fill="white"/>
</g>
<g clip-path="url(#clip2_52_5420)">
<path d="M245.734 674.635C245.329 674.635 245.001 674.963 245.001 675.368V678.786C245.001 679.19 245.329 679.518 245.734 679.518C246.138 679.518 246.466 679.19 246.466 678.786V675.368C246.466 674.963 246.138 674.635 245.734 674.635Z" fill="white"/>
<path d="M245.734 681.325C245.329 681.325 245.001 681.653 245.001 682.057V685.475C245.001 685.88 245.329 686.208 245.734 686.208C246.138 686.208 246.466 685.88 246.466 685.475V682.057C246.466 681.653 246.138 681.325 245.734 681.325Z" fill="white"/>
<path d="M245.734 688.063C245.329 688.063 245.001 688.391 245.001 688.796V692.214C245.001 692.618 245.329 692.946 245.734 692.946C246.138 692.946 246.466 692.618 246.466 692.214V688.796C246.466 688.391 246.138 688.063 245.734 688.063Z" fill="white"/>
<path d="M245.734 694.753C245.329 694.753 245.001 695.081 245.001 695.485V698.903C245.001 699.308 245.329 699.635 245.734 699.635C246.138 699.635 246.466 699.308 246.466 698.903V695.485C246.466 695.081 246.138 694.753 245.734 694.753Z" fill="white"/>
<path d="M241.994 679.689L236.134 677.89C235.912 677.822 235.671 677.863 235.484 678.002C235.297 678.14 235.187 678.358 235.187 678.591V695.68C235.187 695.913 235.297 696.131 235.484 696.269C235.672 696.408 235.913 696.449 236.134 696.381L241.994 694.582C242.301 694.487 242.511 694.203 242.511 693.881V680.39C242.511 680.068 242.301 679.784 241.994 679.689Z" fill="white"/>
<path d="M255.984 678.002C255.797 677.863 255.555 677.822 255.333 677.89L249.474 679.689C249.166 679.784 248.957 680.068 248.957 680.389V693.881C248.957 694.203 249.167 694.487 249.474 694.582L255.333 696.381C255.556 696.449 255.798 696.407 255.984 696.269C256.171 696.131 256.281 695.913 256.281 695.68V678.591C256.281 678.358 256.171 678.14 255.984 678.002Z" fill="white"/>
</g>
<g clip-path="url(#clip3_52_5420)">
<path d="M317.234 687.135C317.234 686.731 316.906 686.403 316.501 686.403L313.083 686.403C312.679 686.403 312.351 686.731 312.351 687.135C312.351 687.54 312.679 687.868 313.083 687.868L316.501 687.868C316.906 687.868 317.234 687.54 317.234 687.135Z" fill="white"/>
<path d="M310.544 687.135C310.544 686.731 310.217 686.403 309.812 686.403L306.394 686.403C305.99 686.403 305.662 686.731 305.662 687.135C305.662 687.54 305.99 687.868 306.394 687.868L309.812 687.868C310.217 687.868 310.544 687.54 310.544 687.135Z" fill="white"/>
<path d="M303.806 687.135C303.806 686.731 303.478 686.403 303.074 686.403L299.656 686.403C299.251 686.403 298.923 686.731 298.923 687.135C298.923 687.54 299.251 687.868 299.656 687.868L303.074 687.868C303.478 687.868 303.806 687.54 303.806 687.135Z" fill="white"/>
<path d="M297.117 687.135C297.117 686.731 296.789 686.403 296.384 686.403L292.966 686.403C292.562 686.403 292.234 686.731 292.234 687.135C292.234 687.54 292.562 687.868 292.966 687.868L296.384 687.868C296.789 687.868 297.117 687.54 297.117 687.135Z" fill="white"/>
<path d="M312.18 683.395L313.979 677.536C314.047 677.314 314.006 677.073 313.868 676.886C313.73 676.699 313.511 676.589 313.279 676.589L296.189 676.589C295.957 676.589 295.738 676.699 295.6 676.886C295.461 677.073 295.421 677.315 295.489 677.536L297.288 683.395C297.382 683.703 297.666 683.913 297.988 683.913L311.48 683.913C311.802 683.913 312.086 683.703 312.18 683.395Z" fill="white"/>
<path d="M313.868 697.385C314.006 697.198 314.047 696.957 313.979 696.735L312.18 690.876C312.086 690.568 311.802 690.358 311.48 690.358L297.988 690.358C297.666 690.358 297.382 690.568 297.288 690.876L295.489 696.735C295.42 696.958 295.462 697.199 295.6 697.385C295.738 697.572 295.957 697.682 296.189 697.682L313.279 697.682C313.511 697.682 313.73 697.572 313.868 697.385Z" fill="white"/>
</g>
<g clip-path="url(#clip4_52_5420)">
<path d="M358.863 682.265C358.819 682.622 358.795 682.986 358.795 683.355C358.795 683.747 358.822 684.134 358.872 684.512H365.864C364.309 683.076 362.232 682.197 359.953 682.197C359.584 682.197 359.22 682.22 358.863 682.265Z" fill="white"/>
<path d="M367.135 685.978H359.199C359.462 686.811 359.847 687.589 360.333 688.294H368.269C368.006 687.461 367.621 686.682 367.135 685.978Z" fill="white"/>
<path d="M359.953 699.636C363.858 699.636 367.171 697.056 368.278 693.511C368.026 693.53 367.771 693.539 367.515 693.539C361.899 693.539 357.33 688.971 357.33 683.355C357.33 683.098 357.34 682.843 357.359 682.591C353.814 683.698 351.234 687.012 351.234 690.916C351.234 695.724 355.145 699.636 359.953 699.636Z" fill="white"/>
<path d="M368.596 689.759H361.605C363.16 691.195 365.237 692.074 367.515 692.074C367.884 692.074 368.247 692.051 368.605 692.006C368.649 691.649 368.673 691.285 368.673 690.916C368.673 690.524 368.646 690.138 368.596 689.759Z" fill="white"/>
<path d="M367.515 674.635C363.61 674.635 360.296 677.215 359.189 680.76C359.442 680.741 359.696 680.732 359.953 680.732C365.569 680.732 370.138 685.3 370.138 690.916C370.138 691.173 370.128 691.428 370.109 691.68C373.654 690.573 376.234 687.259 376.234 683.355C376.234 678.547 372.322 674.635 367.515 674.635Z" fill="white"/>
</g>
<g clip-path="url(#clip5_52_5420)">
<path d="M114.111 768.911C114.053 768.787 113.906 768.734 113.782 768.792C112.52 769.338 110.952 770.113 109.628 770.031C109.323 769.975 109.31 769.894 109.263 769.743C109.229 768.801 109.837 767.804 110.287 766.92C111.001 765.599 111.83 764.31 112.628 762.96C113.305 761.814 115.017 759.141 112.801 758.463C112.009 758.342 111.37 758.706 110.791 759.027C107.993 760.673 105.693 763.031 103.083 764.801C104.535 761.616 106.472 758.563 107.957 755.291C108.735 753.554 109.865 751.685 110.215 749.595C110.5 747.627 108.747 746.417 107.166 746.922C106.007 747.265 105.424 747.705 104.536 748.265C99.8714 751.538 94.4274 756.756 90.1154 760.463C87.1894 763.233 91.4854 767.399 94.1654 764.409C97.7484 760.341 101.351 755.877 105.532 752.392C105.312 752.828 105.084 753.266 104.856 753.71C102.886 757.456 100.446 761.221 99.1544 765.392C98.8684 766.35 98.6184 767.933 99.6894 768.797C101.724 770.196 103.728 768.012 105.124 766.986C107.19 765.298 109.096 763.295 111.155 761.653C110.472 763.187 109.582 764.717 108.941 766.275C108.496 767.462 107.872 768.669 108.17 770.045C108.728 771.708 110.937 770.881 111.96 770.372C112.677 770.029 113.352 769.637 114.015 769.229C114.12 769.164 114.163 769.028 114.109 768.913L114.111 768.911Z" fill="#5F8CA4"/>
</g>
<path d="M89.8347 787.55C89.4481 787.55 89.0764 787.49 88.7197 787.37C88.3664 787.247 88.0564 787.072 87.7897 786.845C87.5231 786.615 87.3314 786.34 87.2147 786.02L88.3597 785.6C88.4064 785.733 88.5014 785.855 88.6447 785.965C88.7881 786.075 88.9631 786.163 89.1697 786.23C89.3764 786.297 89.5981 786.33 89.8347 786.33C90.0781 786.33 90.3047 786.293 90.5147 786.22C90.7281 786.143 90.8997 786.038 91.0297 785.905C91.1597 785.768 91.2247 785.61 91.2247 785.43C91.2247 785.247 91.1564 785.097 91.0197 784.98C90.8831 784.86 90.7081 784.765 90.4947 784.695C90.2814 784.625 90.0614 784.572 89.8347 784.535C89.3381 784.458 88.8931 784.34 88.4997 784.18C88.1064 784.02 87.7947 783.798 87.5647 783.515C87.3381 783.232 87.2247 782.865 87.2247 782.415C87.2247 781.992 87.3464 781.622 87.5897 781.305C87.8331 780.988 88.1531 780.742 88.5497 780.565C88.9464 780.388 89.3747 780.3 89.8347 780.3C90.2181 780.3 90.5881 780.36 90.9447 780.48C91.3014 780.6 91.6131 780.775 91.8797 781.005C92.1497 781.235 92.3431 781.512 92.4597 781.835L91.3097 782.25C91.2631 782.117 91.1681 781.995 91.0247 781.885C90.8814 781.775 90.7064 781.688 90.4997 781.625C90.2931 781.558 90.0714 781.525 89.8347 781.525C89.5981 781.522 89.3731 781.56 89.1597 781.64C88.9497 781.717 88.7781 781.822 88.6447 781.955C88.5114 782.088 88.4447 782.242 88.4447 782.415C88.4447 782.638 88.5064 782.807 88.6297 782.92C88.7564 783.033 88.9247 783.117 89.1347 783.17C89.3447 783.22 89.5781 783.267 89.8347 783.31C90.3014 783.383 90.7331 783.507 91.1297 783.68C91.5264 783.853 91.8447 784.085 92.0847 784.375C92.3247 784.662 92.4447 785.013 92.4447 785.43C92.4447 785.853 92.3247 786.225 92.0847 786.545C91.8447 786.862 91.5264 787.108 91.1297 787.285C90.7331 787.462 90.3014 787.55 89.8347 787.55ZM97.8843 787.42H96.4793L95.3393 785.455L94.6393 786.29V787.42H93.4193V779.92H94.6393V784.395L96.2943 782.42H97.8893L96.1743 784.465L97.8843 787.42ZM100.386 787.55C99.9259 787.55 99.5059 787.432 99.1259 787.195C98.7493 786.958 98.4476 786.64 98.2209 786.24C97.9976 785.84 97.8859 785.398 97.8859 784.915C97.8859 784.552 97.9509 784.212 98.0809 783.895C98.2109 783.575 98.3893 783.295 98.6159 783.055C98.8459 782.812 99.1126 782.622 99.4159 782.485C99.7193 782.348 100.043 782.28 100.386 782.28C100.776 782.28 101.133 782.363 101.456 782.53C101.783 782.693 102.059 782.918 102.286 783.205C102.513 783.492 102.678 783.818 102.781 784.185C102.884 784.552 102.908 784.935 102.851 785.335H99.1959C99.2426 785.522 99.3193 785.69 99.4259 785.84C99.5326 785.987 99.6676 786.105 99.8309 786.195C99.9943 786.282 100.179 786.327 100.386 786.33C100.599 786.333 100.793 786.283 100.966 786.18C101.143 786.073 101.289 785.93 101.406 785.75L102.651 786.04C102.448 786.483 102.144 786.847 101.741 787.13C101.338 787.41 100.886 787.55 100.386 787.55ZM99.1559 784.42H101.616C101.579 784.22 101.501 784.04 101.381 783.88C101.264 783.717 101.119 783.587 100.946 783.49C100.773 783.393 100.586 783.345 100.386 783.345C100.186 783.345 100.001 783.393 99.8309 783.49C99.6609 783.583 99.5159 783.712 99.3959 783.875C99.2793 784.035 99.1993 784.217 99.1559 784.42ZM106.179 783.64H105.209V787.42H103.989V783.64H103.249V782.42H103.989V780.85H105.209V782.42H106.179V783.64ZM109.901 785.915L111.001 786.51C110.771 786.823 110.483 787.075 110.136 787.265C109.79 787.455 109.411 787.55 109.001 787.55C108.541 787.55 108.121 787.432 107.741 787.195C107.365 786.958 107.063 786.642 106.836 786.245C106.613 785.845 106.501 785.403 106.501 784.92C106.501 784.553 106.566 784.212 106.696 783.895C106.826 783.575 107.005 783.295 107.231 783.055C107.461 782.812 107.728 782.622 108.031 782.485C108.335 782.348 108.658 782.28 109.001 782.28C109.411 782.28 109.79 782.375 110.136 782.565C110.483 782.755 110.771 783.01 111.001 783.33L109.901 783.92C109.785 783.787 109.646 783.683 109.486 783.61C109.33 783.537 109.168 783.5 109.001 783.5C108.761 783.5 108.545 783.567 108.351 783.7C108.158 783.83 108.005 784.003 107.891 784.22C107.778 784.433 107.721 784.667 107.721 784.92C107.721 785.17 107.778 785.403 107.891 785.62C108.005 785.833 108.158 786.005 108.351 786.135C108.545 786.265 108.761 786.33 109.001 786.33C109.175 786.33 109.34 786.293 109.496 786.22C109.653 786.143 109.788 786.042 109.901 785.915ZM116.158 784.26V787.42H114.938V784.58C114.938 784.383 114.889 784.205 114.793 784.045C114.696 783.882 114.566 783.753 114.403 783.66C114.243 783.563 114.064 783.515 113.868 783.515C113.671 783.515 113.491 783.563 113.328 783.66C113.168 783.753 113.039 783.882 112.943 784.045C112.849 784.205 112.803 784.383 112.803 784.58V787.42H111.583L111.578 779.92H112.798L112.803 782.865C112.973 782.685 113.176 782.543 113.413 782.44C113.649 782.333 113.904 782.28 114.178 782.28C114.541 782.28 114.873 782.37 115.173 782.55C115.473 782.727 115.711 782.965 115.888 783.265C116.068 783.562 116.158 783.893 116.158 784.26Z" fill="#5F8CA4"/>
<g clip-path="url(#clip6_52_5420)">
<path d="M181.026 757.898C181.151 758.03 181.208 758.22 181.156 758.41C180.734 759.942 180.108 761.648 179.352 763.344C177.553 767.39 174.335 771.431 173 771.431C172.921 771.431 172.848 771.42 172.781 771.389C172.577 771.294 171.946 771.008 172.426 767.739C172.614 766.481 173.114 763.941 174.387 761.078C175.148 759.377 175.998 757.776 176.848 756.44C176.953 756.281 177.13 756.197 177.307 756.202C177.573 755.653 177.865 755.056 178.152 754.475C178.575 755.014 179.117 755.447 179.753 755.732C180.306 755.986 180.921 756.123 181.532 756.123C181.605 756.123 181.678 756.123 181.751 756.118C181.511 756.715 181.255 757.333 181.026 757.898Z" fill="#5F8CA4"/>
<path d="M185.151 749.615C185.156 750.856 184.906 752.293 184.546 753.101C183.993 754.337 182.793 755.066 181.531 755.066C181.083 755.066 180.619 754.971 180.181 754.771C179.377 754.406 178.767 753.746 178.454 752.911C178.142 752.077 178.168 751.168 178.533 750.355C179.247 749.045 180.071 748.812 180.796 748.606C181.578 748.39 182.319 748.178 183.226 746.662C183.362 746.435 183.643 746.345 183.883 746.456C184.926 746.932 185.151 748.437 185.151 749.615Z" fill="#5F8CA4"/>
<path d="M177.479 753.286C177.14 752.383 177.104 751.416 177.365 750.508C176.9 750.085 176.405 749.721 175.883 749.399C174.345 748.453 172.577 747.909 170.741 747.872C167.925 747.819 165.255 748.886 163.242 750.883C161.229 752.885 160.118 755.558 160.118 758.415C160.118 762.356 162.262 765.937 165.709 767.76C166.121 767.982 166.564 768.093 167.013 768.093C167.539 768.093 168.071 767.939 168.546 767.638C169.406 767.089 169.897 766.164 169.865 765.156C169.808 763.412 170.371 761.97 171.451 761.099C172.05 760.618 172.791 760.333 173.615 760.254C174.345 758.648 175.164 757.142 175.972 755.869C176.129 755.626 176.337 755.441 176.577 755.32C176.88 754.702 177.208 754.021 177.526 753.392C177.505 753.36 177.495 753.323 177.479 753.286ZM165.975 762.377C165.026 762.377 164.264 761.601 164.264 760.645C164.264 759.688 165.026 758.912 165.975 758.912C166.919 758.912 167.68 759.688 167.68 760.645C167.68 761.601 166.919 762.377 165.975 762.377ZM166.893 756.466C165.943 756.466 165.182 755.69 165.182 754.734C165.182 753.778 165.943 752.996 166.893 752.996C167.837 752.996 168.598 753.778 168.598 754.734C168.598 755.69 167.837 756.466 166.893 756.466ZM172.88 755.537C171.93 755.537 171.169 754.755 171.169 753.804C171.169 752.848 171.93 752.066 172.88 752.066C173.824 752.066 174.585 752.848 174.585 753.804C174.585 754.755 173.824 755.537 172.88 755.537Z" fill="#5F8CA4"/>
</g>
<path d="M146.297 787.55C145.824 787.55 145.379 787.457 144.962 787.27C144.546 787.08 144.179 786.818 143.862 786.485C143.549 786.152 143.302 785.767 143.122 785.33C142.946 784.89 142.857 784.42 142.857 783.92C142.857 783.417 142.946 782.947 143.122 782.51C143.302 782.07 143.549 781.685 143.862 781.355C144.179 781.022 144.546 780.762 144.962 780.575C145.379 780.385 145.824 780.29 146.297 780.29C146.864 780.29 147.386 780.422 147.862 780.685C148.339 780.945 148.734 781.293 149.047 781.73L147.957 782.315C147.761 782.072 147.516 781.877 147.222 781.73C146.932 781.583 146.624 781.51 146.297 781.51C145.991 781.51 145.702 781.573 145.432 781.7C145.162 781.823 144.926 781.997 144.722 782.22C144.519 782.44 144.361 782.697 144.247 782.99C144.134 783.28 144.077 783.59 144.077 783.92C144.077 784.253 144.134 784.565 144.247 784.855C144.364 785.145 144.524 785.402 144.727 785.625C144.931 785.845 145.166 786.018 145.432 786.145C145.702 786.268 145.991 786.33 146.297 786.33C146.631 786.33 146.941 786.257 147.227 786.11C147.517 785.96 147.761 785.763 147.957 785.52L149.047 786.11C148.734 786.543 148.339 786.892 147.862 787.155C147.386 787.418 146.864 787.55 146.297 787.55ZM151.762 787.55C151.302 787.55 150.882 787.432 150.502 787.195C150.126 786.958 149.824 786.642 149.597 786.245C149.374 785.845 149.262 785.403 149.262 784.92C149.262 784.553 149.327 784.212 149.457 783.895C149.587 783.575 149.766 783.295 149.992 783.055C150.222 782.812 150.489 782.622 150.792 782.485C151.096 782.348 151.419 782.28 151.762 782.28C152.222 782.28 152.641 782.398 153.017 782.635C153.397 782.872 153.699 783.19 153.922 783.59C154.149 783.99 154.262 784.433 154.262 784.92C154.262 785.283 154.197 785.623 154.067 785.94C153.937 786.257 153.757 786.537 153.527 786.78C153.301 787.02 153.036 787.208 152.732 787.345C152.432 787.482 152.109 787.55 151.762 787.55ZM151.762 786.33C152.006 786.33 152.224 786.265 152.417 786.135C152.611 786.005 152.762 785.833 152.872 785.62C152.986 785.407 153.042 785.173 153.042 784.92C153.042 784.66 152.984 784.423 152.867 784.21C152.754 783.993 152.599 783.822 152.402 783.695C152.209 783.565 151.996 783.5 151.762 783.5C151.522 783.5 151.306 783.565 151.112 783.695C150.919 783.825 150.766 783.998 150.652 784.215C150.539 784.432 150.482 784.667 150.482 784.92C150.482 785.183 150.541 785.422 150.657 785.635C150.774 785.848 150.929 786.018 151.122 786.145C151.319 786.268 151.532 786.33 151.762 786.33ZM154.798 787.42V779.92H156.018V787.42H154.798ZM159.176 787.55C158.716 787.55 158.296 787.432 157.916 787.195C157.54 786.958 157.238 786.642 157.011 786.245C156.788 785.845 156.676 785.403 156.676 784.92C156.676 784.553 156.741 784.212 156.871 783.895C157.001 783.575 157.18 783.295 157.406 783.055C157.636 782.812 157.903 782.622 158.206 782.485C158.51 782.348 158.833 782.28 159.176 782.28C159.636 782.28 160.055 782.398 160.431 782.635C160.811 782.872 161.113 783.19 161.336 783.59C161.563 783.99 161.676 784.433 161.676 784.92C161.676 785.283 161.611 785.623 161.481 785.94C161.351 786.257 161.171 786.537 160.941 786.78C160.715 787.02 160.45 787.208 160.146 787.345C159.846 787.482 159.523 787.55 159.176 787.55ZM159.176 786.33C159.42 786.33 159.638 786.265 159.831 786.135C160.025 786.005 160.176 785.833 160.286 785.62C160.4 785.407 160.456 785.173 160.456 784.92C160.456 784.66 160.398 784.423 160.281 784.21C160.168 783.993 160.013 783.822 159.816 783.695C159.623 783.565 159.41 783.5 159.176 783.5C158.936 783.5 158.72 783.565 158.526 783.695C158.333 783.825 158.18 783.998 158.066 784.215C157.953 784.432 157.896 784.667 157.896 784.92C157.896 785.183 157.955 785.422 158.071 785.635C158.188 785.848 158.343 786.018 158.536 786.145C158.733 786.268 158.946 786.33 159.176 786.33ZM162.295 787.42L162.29 782.42H163.51L163.515 782.865C163.685 782.685 163.888 782.543 164.125 782.44C164.362 782.333 164.617 782.28 164.89 782.28C165.073 782.28 165.257 782.307 165.44 782.36L164.96 783.59C164.833 783.54 164.707 783.515 164.58 783.515C164.383 783.515 164.203 783.563 164.04 783.66C163.88 783.753 163.752 783.882 163.655 784.045C163.562 784.205 163.515 784.383 163.515 784.58V787.42H162.295ZM165.816 782.42H167.036V787.42H165.816V782.42ZM166.436 781.775C166.256 781.775 166.105 781.717 165.981 781.6C165.858 781.48 165.796 781.33 165.796 781.15C165.796 780.973 165.858 780.825 165.981 780.705C166.105 780.585 166.255 780.525 166.431 780.525C166.608 780.525 166.756 780.585 166.876 780.705C167 780.825 167.061 780.973 167.061 781.15C167.061 781.33 167.001 781.48 166.881 781.6C166.761 781.717 166.613 781.775 166.436 781.775ZM172.614 784.26V787.42H171.394V784.58C171.394 784.383 171.346 784.205 171.249 784.045C171.152 783.882 171.022 783.753 170.859 783.66C170.699 783.563 170.521 783.515 170.324 783.515C170.127 783.515 169.947 783.563 169.784 783.66C169.624 783.753 169.496 783.882 169.399 784.045C169.306 784.205 169.259 784.383 169.259 784.58V787.42H168.039L168.034 782.42H169.254L169.259 782.865C169.429 782.685 169.632 782.543 169.869 782.44C170.106 782.333 170.361 782.28 170.634 782.28C170.997 782.28 171.329 782.37 171.629 782.55C171.929 782.727 172.167 782.965 172.344 783.265C172.524 783.562 172.614 783.893 172.614 784.26ZM177.058 782.42H178.278V787.515C178.278 787.875 178.204 788.202 178.058 788.495C177.911 788.792 177.711 789.045 177.458 789.255C177.204 789.468 176.914 789.632 176.588 789.745C176.261 789.862 175.918 789.92 175.558 789.92C175.208 789.92 174.871 789.848 174.548 789.705C174.224 789.562 173.938 789.365 173.688 789.115C173.441 788.868 173.253 788.587 173.123 788.27L174.238 787.765C174.304 787.948 174.404 788.108 174.538 788.245C174.674 788.385 174.831 788.493 175.008 788.57C175.184 788.65 175.368 788.69 175.558 788.69C175.751 788.69 175.936 788.663 176.113 788.61C176.293 788.557 176.454 788.478 176.598 788.375C176.741 788.275 176.853 788.152 176.933 788.005C177.016 787.862 177.058 787.698 177.058 787.515V786.81C176.901 787.03 176.704 787.208 176.468 787.345C176.231 787.482 175.958 787.55 175.648 787.55C175.288 787.55 174.951 787.482 174.638 787.345C174.324 787.208 174.048 787.02 173.808 786.78C173.571 786.537 173.384 786.257 173.248 785.94C173.114 785.623 173.048 785.283 173.048 784.92C173.048 784.557 173.114 784.217 173.248 783.9C173.384 783.583 173.571 783.305 173.808 783.065C174.048 782.822 174.324 782.632 174.638 782.495C174.951 782.358 175.288 782.29 175.648 782.29C175.958 782.29 176.231 782.358 176.468 782.495C176.704 782.628 176.901 782.805 177.058 783.025V782.42ZM175.663 786.375C175.919 786.375 176.146 786.31 176.343 786.18C176.543 786.047 176.699 785.87 176.813 785.65C176.926 785.427 176.983 785.183 176.983 784.92C176.983 784.653 176.924 784.41 176.808 784.19C176.694 783.97 176.538 783.793 176.338 783.66C176.141 783.527 175.916 783.46 175.663 783.46C175.413 783.46 175.184 783.527 174.978 783.66C174.771 783.79 174.606 783.965 174.483 784.185C174.359 784.405 174.298 784.65 174.298 784.92C174.298 785.19 174.359 785.435 174.483 785.655C174.606 785.875 174.771 786.05 174.978 786.18C175.184 786.31 175.413 786.375 175.663 786.375ZM184.213 782.28C184.699 782.28 185.143 782.398 185.543 782.635C185.943 782.872 186.261 783.19 186.498 783.59C186.734 783.987 186.853 784.427 186.853 784.91C186.853 785.273 186.784 785.615 186.648 785.935C186.511 786.255 186.321 786.537 186.078 786.78C185.838 787.02 185.558 787.208 185.238 787.345C184.921 787.482 184.579 787.55 184.213 787.55C183.899 787.55 183.621 787.48 183.378 787.34C183.138 787.197 182.936 787.012 182.773 786.785V787.42H181.553V779.92H182.773V783.045C182.936 782.818 183.138 782.635 183.378 782.495C183.621 782.352 183.899 782.28 184.213 782.28ZM184.198 786.37C184.458 786.37 184.693 786.305 184.903 786.175C185.116 786.042 185.286 785.865 185.413 785.645C185.539 785.425 185.603 785.18 185.603 784.91C185.603 784.643 185.539 784.4 185.413 784.18C185.286 783.957 185.116 783.78 184.903 783.65C184.689 783.52 184.454 783.455 184.198 783.455C183.944 783.455 183.718 783.522 183.518 783.655C183.318 783.785 183.161 783.962 183.048 784.185C182.934 784.405 182.878 784.647 182.878 784.91C182.878 785.18 182.934 785.427 183.048 785.65C183.161 785.87 183.318 786.045 183.518 786.175C183.718 786.305 183.944 786.37 184.198 786.37ZM189.691 787.55C189.231 787.55 188.811 787.432 188.431 787.195C188.055 786.958 187.753 786.642 187.526 786.245C187.303 785.845 187.191 785.403 187.191 784.92C187.191 784.553 187.256 784.212 187.386 783.895C187.516 783.575 187.695 783.295 187.921 783.055C188.151 782.812 188.418 782.622 188.721 782.485C189.025 782.348 189.348 782.28 189.691 782.28C190.151 782.28 190.57 782.398 190.946 782.635C191.326 782.872 191.628 783.19 191.851 783.59C192.078 783.99 192.191 784.433 192.191 784.92C192.191 785.283 192.126 785.623 191.996 785.94C191.866 786.257 191.686 786.537 191.456 786.78C191.23 787.02 190.965 787.208 190.661 787.345C190.361 787.482 190.038 787.55 189.691 787.55ZM189.691 786.33C189.935 786.33 190.153 786.265 190.346 786.135C190.54 786.005 190.691 785.833 190.801 785.62C190.915 785.407 190.971 785.173 190.971 784.92C190.971 784.66 190.913 784.423 190.796 784.21C190.683 783.993 190.528 783.822 190.331 783.695C190.138 783.565 189.925 783.5 189.691 783.5C189.451 783.5 189.235 783.565 189.041 783.695C188.848 783.825 188.695 783.998 188.581 784.215C188.468 784.432 188.411 784.667 188.411 784.92C188.411 785.183 188.47 785.422 188.586 785.635C188.703 785.848 188.858 786.018 189.051 786.145C189.248 786.268 189.461 786.33 189.691 786.33ZM195.024 787.55C194.564 787.55 194.144 787.432 193.764 787.195C193.388 786.958 193.086 786.642 192.859 786.245C192.636 785.845 192.524 785.403 192.524 784.92C192.524 784.553 192.589 784.212 192.719 783.895C192.849 783.575 193.028 783.295 193.254 783.055C193.484 782.812 193.751 782.622 194.054 782.485C194.358 782.348 194.681 782.28 195.024 782.28C195.484 782.28 195.903 782.398 196.279 782.635C196.659 782.872 196.961 783.19 197.184 783.59C197.411 783.99 197.524 784.433 197.524 784.92C197.524 785.283 197.459 785.623 197.329 785.94C197.199 786.257 197.019 786.537 196.789 786.78C196.563 787.02 196.298 787.208 195.994 787.345C195.694 787.482 195.371 787.55 195.024 787.55ZM195.024 786.33C195.268 786.33 195.486 786.265 195.679 786.135C195.873 786.005 196.024 785.833 196.134 785.62C196.248 785.407 196.304 785.173 196.304 784.92C196.304 784.66 196.246 784.423 196.129 784.21C196.016 783.993 195.861 783.822 195.664 783.695C195.471 783.565 195.258 783.5 195.024 783.5C194.784 783.5 194.568 783.565 194.374 783.695C194.181 783.825 194.028 783.998 193.914 784.215C193.801 784.432 193.744 784.667 193.744 784.92C193.744 785.183 193.803 785.422 193.919 785.635C194.036 785.848 194.191 786.018 194.384 786.145C194.581 786.268 194.794 786.33 195.024 786.33ZM202.525 787.42H201.12L199.98 785.455L199.28 786.29V787.42H198.06V779.92H199.28V784.395L200.935 782.42H202.53L200.815 784.465L202.525 787.42Z" fill="#5F8CA4"/>
<g clip-path="url(#clip7_52_5420)">
<path d="M250.722 766.387C250.665 766.33 250.629 766.266 250.608 766.194L250.458 765.709C250.358 765.373 250.051 765.152 249.701 765.152C249.351 765.152 249.043 765.373 248.936 765.709L248.786 766.194C248.736 766.366 248.601 766.502 248.429 766.552L247.951 766.702C247.608 766.809 247.386 767.109 247.386 767.466C247.386 767.816 247.608 768.123 247.943 768.223L248.243 768.316C247.058 768.987 245.743 769.43 244.372 769.58C239.615 770.359 234.722 766.966 233.815 762.202C232.936 758.544 234.851 754.552 238.465 753.309C240.758 752.494 243.572 752.73 245.229 754.723C246.029 755.73 246.351 757.073 246.036 758.323C245.758 759.509 244.522 760.63 243.279 760.323C243.079 760.28 243.036 759.994 243.215 759.894C244.279 759.259 244.579 758.044 244.222 756.93C243.579 755.109 241.158 754.98 239.486 755.787C236.458 757.223 236.258 761.109 237.993 763.602C240.893 768.08 247.736 767.052 250.772 763.13C251.915 761.752 252.679 760.016 252.986 758.102C253.022 757.794 253.501 757.802 253.536 758.102C254.036 761.166 252.843 764.202 250.722 766.387ZM251.265 755.344C250.358 750.58 245.465 747.187 240.708 747.966C239.051 748.144 237.486 748.752 236.122 749.673L236.272 749.723C236.615 749.823 236.843 750.137 236.843 750.494C236.843 750.852 236.615 751.159 236.272 751.266L235.715 751.437C235.479 751.516 235.293 751.694 235.222 751.93L235.051 752.494C234.943 752.837 234.636 753.066 234.272 753.066C233.922 753.066 233.608 752.837 233.501 752.494L233.429 752.252C231.901 754.302 231.122 756.859 231.543 759.444C231.579 759.744 232.058 759.744 232.093 759.444C232.401 757.53 233.165 755.794 234.308 754.416C237.343 750.494 244.186 749.466 247.086 753.937C248.822 756.43 248.622 760.316 245.593 761.752C243.922 762.566 241.501 762.43 240.858 760.616C240.501 759.502 240.801 758.287 241.865 757.652C242.043 757.552 242.001 757.259 241.801 757.216C240.558 756.916 239.322 758.037 239.043 759.223C238.729 760.473 239.051 761.809 239.851 762.823C241.508 764.816 244.322 765.052 246.615 764.237C250.229 762.987 252.143 759.002 251.265 755.344ZM233.062 766.005L232.874 766.615C232.718 767.12 232.323 767.515 231.818 767.671L231.208 767.859C231.11 767.889 231.11 768.028 231.208 768.058L231.818 768.246C232.323 768.402 232.718 768.797 232.874 769.302L233.062 769.912C233.092 770.01 233.23 770.01 233.26 769.912L233.449 769.302C233.604 768.797 234 768.402 234.504 768.246L235.115 768.058C235.213 768.028 235.213 767.889 235.115 767.859L234.504 767.671C234 767.515 233.604 767.12 233.449 766.615L233.26 766.005C233.23 765.907 233.092 765.907 233.062 766.005ZM249.62 765.922L249.471 766.404C249.349 766.802 249.037 767.114 248.638 767.237L248.156 767.386C248.079 767.409 248.079 767.519 248.156 767.542L248.638 767.691C249.037 767.814 249.349 768.126 249.471 768.524L249.62 769.006C249.644 769.083 249.753 769.083 249.777 769.006L249.925 768.524C250.048 768.126 250.36 767.814 250.759 767.691L251.241 767.542C251.318 767.519 251.318 767.409 251.241 767.386L250.759 767.237C250.36 767.114 250.048 766.802 249.925 766.404L249.777 765.922C249.753 765.845 249.644 765.845 249.62 765.922ZM254.21 752.754L254.039 753.306C253.898 753.763 253.541 754.121 253.084 754.262L252.531 754.432C252.443 754.459 252.443 754.585 252.531 754.612L253.084 754.782C253.541 754.923 253.898 755.281 254.039 755.738L254.21 756.291C254.237 756.379 254.362 756.379 254.389 756.291L254.56 755.738C254.701 755.281 255.058 754.923 255.515 754.782L256.068 754.612C256.156 754.585 256.156 754.459 256.068 754.432L255.515 754.262C255.058 754.121 254.701 753.763 254.56 753.306L254.389 752.754C254.362 752.665 254.237 752.665 254.21 752.754ZM234.185 748.705L234.012 749.264C233.87 749.726 233.508 750.088 233.046 750.23L232.487 750.403C232.398 750.43 232.398 750.557 232.487 750.585L233.046 750.757C233.508 750.899 233.87 751.261 234.012 751.723L234.185 752.282C234.212 752.371 234.339 752.371 234.366 752.282L234.539 751.723C234.681 751.261 235.043 750.899 235.505 750.757L236.064 750.585C236.153 750.557 236.153 750.43 236.064 750.403L235.505 750.23C235.043 750.088 234.681 749.726 234.539 749.264L234.366 748.705C234.339 748.616 234.212 748.616 234.185 748.705Z" fill="#5F8CA4"/>
</g>
<path d="M218.243 780.42H219.648L222.193 787.42H220.898L220.448 786.18H217.448L216.998 787.42H215.703L218.243 780.42ZM217.893 784.96H219.998L218.943 782.075L217.893 784.96ZM223.017 787.42V780.42H224.237V787.42H223.017ZM230.904 787.55C230.418 787.55 229.964 787.455 229.544 787.265C229.128 787.075 228.764 786.813 228.454 786.48C228.144 786.143 227.901 785.757 227.724 785.32C227.551 784.88 227.464 784.41 227.464 783.91C227.464 783.383 227.558 782.9 227.744 782.46C227.934 782.02 228.193 781.638 228.519 781.315C228.846 780.992 229.216 780.742 229.629 780.565C230.046 780.388 230.479 780.3 230.929 780.3C231.433 780.3 231.921 780.418 232.394 780.655C232.871 780.888 233.291 781.25 233.654 781.74L232.564 782.325C232.341 782.052 232.084 781.848 231.794 781.715C231.508 781.578 231.214 781.51 230.914 781.51C230.621 781.51 230.339 781.57 230.069 781.69C229.803 781.81 229.564 781.98 229.354 782.2C229.148 782.417 228.984 782.673 228.864 782.97C228.744 783.263 228.684 783.585 228.684 783.935C228.684 784.265 228.743 784.577 228.859 784.87C228.976 785.16 229.136 785.415 229.339 785.635C229.546 785.852 229.784 786.022 230.054 786.145C230.324 786.268 230.614 786.33 230.924 786.33C231.131 786.33 231.333 786.298 231.529 786.235C231.729 786.168 231.916 786.073 232.089 785.95C232.266 785.827 232.423 785.677 232.559 785.5C232.699 785.323 232.816 785.123 232.909 784.9H231.634V783.835H234.344C234.358 784.345 234.278 784.823 234.104 785.27C233.931 785.717 233.686 786.112 233.369 786.455C233.053 786.798 232.684 787.067 232.264 787.26C231.844 787.453 231.391 787.55 230.904 787.55ZM237.229 787.55C236.769 787.55 236.349 787.432 235.969 787.195C235.592 786.958 235.29 786.64 235.064 786.24C234.84 785.84 234.729 785.398 234.729 784.915C234.729 784.552 234.794 784.212 234.924 783.895C235.054 783.575 235.232 783.295 235.459 783.055C235.689 782.812 235.955 782.622 236.259 782.485C236.562 782.348 236.885 782.28 237.229 782.28C237.619 782.28 237.975 782.363 238.299 782.53C238.625 782.693 238.902 782.918 239.129 783.205C239.355 783.492 239.52 783.818 239.624 784.185C239.727 784.552 239.75 784.935 239.694 785.335H236.039C236.085 785.522 236.162 785.69 236.269 785.84C236.375 785.987 236.51 786.105 236.674 786.195C236.837 786.282 237.022 786.327 237.229 786.33C237.442 786.333 237.635 786.283 237.809 786.18C237.985 786.073 238.132 785.93 238.249 785.75L239.494 786.04C239.29 786.483 238.987 786.847 238.584 787.13C238.18 787.41 237.729 787.55 237.229 787.55ZM235.999 784.42H238.459C238.422 784.22 238.344 784.04 238.224 783.88C238.107 783.717 237.962 783.587 237.789 783.49C237.615 783.393 237.429 783.345 237.229 783.345C237.029 783.345 236.844 783.393 236.674 783.49C236.504 783.583 236.359 783.712 236.239 783.875C236.122 784.035 236.042 784.217 235.999 784.42ZM244.922 784.26V787.42H243.702V784.58C243.702 784.383 243.654 784.205 243.557 784.045C243.46 783.882 243.331 783.753 243.167 783.66C243.007 783.563 242.829 783.515 242.632 783.515C242.436 783.515 242.256 783.563 242.092 783.66C241.932 783.753 241.804 783.882 241.707 784.045C241.614 784.205 241.567 784.383 241.567 784.58V787.42H240.347L240.342 782.42H241.562L241.567 782.865C241.737 782.685 241.94 782.543 242.177 782.44C242.414 782.333 242.669 782.28 242.942 782.28C243.305 782.28 243.637 782.37 243.937 782.55C244.237 782.727 244.476 782.965 244.652 783.265C244.832 783.562 244.922 783.893 244.922 784.26ZM247.856 787.55C247.396 787.55 246.976 787.432 246.596 787.195C246.219 786.958 245.917 786.64 245.691 786.24C245.467 785.84 245.356 785.398 245.356 784.915C245.356 784.552 245.421 784.212 245.551 783.895C245.681 783.575 245.859 783.295 246.086 783.055C246.316 782.812 246.582 782.622 246.886 782.485C247.189 782.348 247.512 782.28 247.856 782.28C248.246 782.28 248.602 782.363 248.926 782.53C249.252 782.693 249.529 782.918 249.756 783.205C249.982 783.492 250.147 783.818 250.251 784.185C250.354 784.552 250.377 784.935 250.321 785.335H246.666C246.712 785.522 246.789 785.69 246.896 785.84C247.002 785.987 247.137 786.105 247.301 786.195C247.464 786.282 247.649 786.327 247.856 786.33C248.069 786.333 248.262 786.283 248.436 786.18C248.612 786.073 248.759 785.93 248.876 785.75L250.121 786.04C249.917 786.483 249.614 786.847 249.211 787.13C248.807 787.41 248.356 787.55 247.856 787.55ZM246.626 784.42H249.086C249.049 784.22 248.971 784.04 248.851 783.88C248.734 783.717 248.589 783.587 248.416 783.49C248.242 783.393 248.056 783.345 247.856 783.345C247.656 783.345 247.471 783.393 247.301 783.49C247.131 783.583 246.986 783.712 246.866 783.875C246.749 784.035 246.669 784.217 246.626 784.42ZM250.974 787.42L250.969 782.42H252.189L252.194 782.865C252.364 782.685 252.568 782.543 252.804 782.44C253.041 782.333 253.296 782.28 253.569 782.28C253.753 782.28 253.936 782.307 254.119 782.36L253.639 783.59C253.513 783.54 253.386 783.515 253.259 783.515C253.063 783.515 252.883 783.563 252.719 783.66C252.559 783.753 252.431 783.882 252.334 784.045C252.241 784.205 252.194 784.383 252.194 784.58V787.42H250.974ZM258.051 782.42H259.271V787.42H258.051L257.996 786.8C257.859 787.023 257.677 787.205 257.451 787.345C257.227 787.482 256.962 787.55 256.656 787.55C256.286 787.55 255.939 787.48 255.616 787.34C255.292 787.2 255.007 787.007 254.761 786.76C254.517 786.513 254.326 786.228 254.186 785.905C254.049 785.582 253.981 785.235 253.981 784.865C253.981 784.508 254.046 784.173 254.176 783.86C254.309 783.547 254.494 783.272 254.731 783.035C254.967 782.798 255.241 782.613 255.551 782.48C255.861 782.347 256.194 782.28 256.551 782.28C256.881 782.28 257.176 782.353 257.436 782.5C257.699 782.647 257.922 782.833 258.106 783.06L258.051 782.42ZM256.626 786.375C256.886 786.375 257.116 786.31 257.316 786.18C257.516 786.05 257.672 785.875 257.786 785.655C257.899 785.432 257.956 785.187 257.956 784.92C257.956 784.65 257.899 784.405 257.786 784.185C257.672 783.962 257.514 783.785 257.311 783.655C257.111 783.525 256.882 783.46 256.626 783.46C256.369 783.46 256.134 783.527 255.921 783.66C255.711 783.79 255.542 783.965 255.416 784.185C255.292 784.405 255.231 784.65 255.231 784.92C255.231 785.19 255.294 785.435 255.421 785.655C255.547 785.875 255.716 786.05 255.926 786.18C256.139 786.31 256.372 786.375 256.626 786.375ZM262.782 783.64H261.812V787.42H260.592V783.64H259.852V782.42H260.592V780.85H261.812V782.42H262.782V783.64ZM265.604 787.55C265.144 787.55 264.724 787.432 264.344 787.195C263.967 786.958 263.666 786.642 263.439 786.245C263.216 785.845 263.104 785.403 263.104 784.92C263.104 784.553 263.169 784.212 263.299 783.895C263.429 783.575 263.607 783.295 263.834 783.055C264.064 782.812 264.331 782.622 264.634 782.485C264.937 782.348 265.261 782.28 265.604 782.28C266.064 782.28 266.482 782.398 266.859 782.635C267.239 782.872 267.541 783.19 267.764 783.59C267.991 783.99 268.104 784.433 268.104 784.92C268.104 785.283 268.039 785.623 267.909 785.94C267.779 786.257 267.599 786.537 267.369 786.78C267.142 787.02 266.877 787.208 266.574 787.345C266.274 787.482 265.951 787.55 265.604 787.55ZM265.604 786.33C265.847 786.33 266.066 786.265 266.259 786.135C266.452 786.005 266.604 785.833 266.714 785.62C266.827 785.407 266.884 785.173 266.884 784.92C266.884 784.66 266.826 784.423 266.709 784.21C266.596 783.993 266.441 783.822 266.244 783.695C266.051 783.565 265.837 783.5 265.604 783.5C265.364 783.5 265.147 783.565 264.954 783.695C264.761 783.825 264.607 783.998 264.494 784.215C264.381 784.432 264.324 784.667 264.324 784.92C264.324 785.183 264.382 785.422 264.499 785.635C264.616 785.848 264.771 786.018 264.964 786.145C265.161 786.268 265.374 786.33 265.604 786.33ZM268.722 787.42L268.717 782.42H269.937L269.942 782.865C270.112 782.685 270.316 782.543 270.552 782.44C270.789 782.333 271.044 782.28 271.317 782.28C271.501 782.28 271.684 782.307 271.867 782.36L271.387 783.59C271.261 783.54 271.134 783.515 271.007 783.515C270.811 783.515 270.631 783.563 270.467 783.66C270.307 783.753 270.179 783.882 270.082 784.045C269.989 784.205 269.942 784.383 269.942 784.58V787.42H268.722Z" fill="#5F8CA4"/>
<g clip-path="url(#clip8_52_5420)">
<path d="M324.746 748.808C322.369 746.43 318.533 746.057 314.634 747.43C310.736 746.055 306.902 746.429 304.523 748.808C302.144 751.188 301.771 755.022 303.145 758.92C301.771 762.818 302.144 766.653 304.523 769.031C305.993 770.502 308.02 771.206 310.272 771.206C311.761 771.189 313.235 770.919 314.634 770.41C316.033 770.919 317.508 771.189 318.997 771.206C321.25 771.206 323.276 770.501 324.746 769.031C327.125 766.653 327.499 762.818 326.124 758.92C327.499 755.022 327.125 751.187 324.746 748.808ZM318.986 748.691C320.741 748.691 322.225 749.234 323.273 750.281C324.591 751.6 325.108 753.607 324.753 755.977C323.008 753.016 320.538 750.547 317.577 748.801C318.044 748.729 318.515 748.693 318.986 748.691ZM314.634 768.2C312.569 767.315 310.696 766.035 309.121 764.433C307.519 762.858 306.239 760.985 305.354 758.92C306.239 756.855 307.519 754.982 309.121 753.406C310.696 751.804 312.569 750.525 314.634 749.639C316.7 750.525 318.572 751.804 320.148 753.406C321.75 754.982 323.029 756.855 323.915 758.92C323.029 760.985 321.75 762.858 320.148 764.433C318.572 766.035 316.7 767.315 314.634 768.2ZM305.996 750.281C307.044 749.234 308.528 748.691 310.282 748.691C310.755 748.693 311.226 748.729 311.693 748.801C308.731 750.546 306.261 753.016 304.516 755.977C304.16 753.607 304.678 751.6 305.996 750.281ZM305.996 767.558C304.678 766.24 304.16 764.232 304.516 761.863C305.382 763.339 306.435 764.699 307.648 765.907C308.856 767.12 310.215 768.173 311.692 769.039C309.322 769.394 307.314 768.877 305.996 767.558ZM323.273 767.558C321.954 768.877 319.947 769.394 317.577 769.039C319.054 768.172 320.413 767.12 321.621 765.906C322.834 764.698 323.887 763.339 324.753 761.863C325.108 764.232 324.591 766.24 323.273 767.558Z" fill="#009DFF"/>
<path d="M319.372 754.925C319.364 754.92 319.357 754.914 319.349 754.909C319.333 754.899 319.317 754.892 319.301 754.883C319.286 754.873 319.279 754.868 319.267 754.862L315.1 752.779C314.956 752.707 314.796 752.669 314.635 752.669C314.473 752.669 314.313 752.707 314.169 752.779L310.002 754.862C309.99 754.868 309.979 754.876 309.968 754.882C309.952 754.891 309.936 754.898 309.92 754.908C309.912 754.914 309.905 754.92 309.896 754.925L314.636 757.295L319.376 754.925H319.372Z" fill="#009DFF"/>
<path d="M315.155 763.991L319.267 761.935C319.44 761.849 319.586 761.716 319.687 761.551C319.789 761.386 319.843 761.197 319.843 761.003V755.856L315.155 758.2V763.991Z" fill="#009DFF"/>
<path d="M309.426 761.003C309.426 761.197 309.48 761.386 309.582 761.551C309.684 761.716 309.829 761.849 310.002 761.935L314.114 763.991V758.2L309.426 755.856V761.003Z" fill="#009DFF"/>
</g>
<path d="M291.378 780.42H292.783L295.328 787.42H294.033L293.583 786.18H290.583L290.133 787.42H288.838L291.378 780.42ZM291.028 784.96H293.133L292.078 782.075L291.028 784.96ZM296.002 787.42V780.42H298.687C299.067 780.42 299.411 780.515 299.717 780.705C300.024 780.895 300.267 781.15 300.447 781.47C300.627 781.787 300.717 782.138 300.717 782.525C300.717 782.842 300.659 783.133 300.542 783.4C300.429 783.663 300.269 783.892 300.062 784.085C299.859 784.278 299.624 784.425 299.357 784.525L301.032 787.42H299.627L298.007 784.635H297.222V787.42H296.002ZM297.222 783.415H298.547C298.721 783.415 298.879 783.372 299.022 783.285C299.166 783.198 299.281 783.082 299.367 782.935C299.454 782.788 299.497 782.625 299.497 782.445C299.497 782.262 299.454 782.097 299.367 781.95C299.281 781.803 299.166 781.687 299.022 781.6C298.879 781.513 298.721 781.47 298.547 781.47H297.222V783.415ZM304.139 787.42V780.42H306.459C306.942 780.42 307.394 780.512 307.814 780.695C308.237 780.875 308.609 781.127 308.929 781.45C309.252 781.77 309.504 782.142 309.684 782.565C309.867 782.985 309.959 783.437 309.959 783.92C309.959 784.403 309.867 784.857 309.684 785.28C309.504 785.7 309.252 786.072 308.929 786.395C308.609 786.715 308.237 786.967 307.814 787.15C307.394 787.33 306.942 787.42 306.459 787.42H304.139ZM305.359 786.2H306.459C306.769 786.2 307.061 786.142 307.334 786.025C307.611 785.905 307.854 785.742 308.064 785.535C308.274 785.325 308.439 785.083 308.559 784.81C308.679 784.533 308.739 784.237 308.739 783.92C308.739 783.603 308.679 783.308 308.559 783.035C308.439 782.762 308.274 782.52 308.064 782.31C307.854 782.1 307.612 781.937 307.339 781.82C307.066 781.7 306.772 781.64 306.459 781.64H305.359V786.2ZM310.659 787.42L310.654 782.42H311.874L311.879 782.865C312.049 782.685 312.252 782.543 312.489 782.44C312.725 782.333 312.98 782.28 313.254 782.28C313.437 782.28 313.62 782.307 313.804 782.36L313.324 783.59C313.197 783.54 313.07 783.515 312.944 783.515C312.747 783.515 312.567 783.563 312.404 783.66C312.244 783.753 312.115 783.882 312.019 784.045C311.925 784.205 311.879 784.383 311.879 784.58V787.42H310.659ZM317.735 782.42H318.955V787.42H317.735L317.68 786.8C317.544 787.023 317.362 787.205 317.135 787.345C316.912 787.482 316.647 787.55 316.34 787.55C315.97 787.55 315.624 787.48 315.3 787.34C314.977 787.2 314.692 787.007 314.445 786.76C314.202 786.513 314.01 786.228 313.87 785.905C313.734 785.582 313.665 785.235 313.665 784.865C313.665 784.508 313.73 784.173 313.86 783.86C313.994 783.547 314.179 783.272 314.415 783.035C314.652 782.798 314.925 782.613 315.235 782.48C315.545 782.347 315.879 782.28 316.235 782.28C316.565 782.28 316.86 782.353 317.12 782.5C317.384 782.647 317.607 782.833 317.79 783.06L317.735 782.42ZM316.31 786.375C316.57 786.375 316.8 786.31 317 786.18C317.2 786.05 317.357 785.875 317.47 785.655C317.584 785.432 317.64 785.187 317.64 784.92C317.64 784.65 317.584 784.405 317.47 784.185C317.357 783.962 317.199 783.785 316.995 783.655C316.795 783.525 316.567 783.46 316.31 783.46C316.054 783.46 315.819 783.527 315.605 783.66C315.395 783.79 315.227 783.965 315.1 784.185C314.977 784.405 314.915 784.65 314.915 784.92C314.915 785.19 314.979 785.435 315.105 785.655C315.232 785.875 315.4 786.05 315.61 786.18C315.824 786.31 316.057 786.375 316.31 786.375ZM322.142 787.42H320.932L319.262 782.42H320.457L321.542 785.655L322.622 782.42H323.827L324.907 785.655L325.992 782.42H327.187L325.517 787.42H324.307L323.222 784.17L322.142 787.42ZM327.766 782.42H328.986V787.42H327.766V782.42ZM328.386 781.775C328.206 781.775 328.054 781.717 327.931 781.6C327.808 781.48 327.746 781.33 327.746 781.15C327.746 780.973 327.808 780.825 327.931 780.705C328.054 780.585 328.204 780.525 328.381 780.525C328.558 780.525 328.706 780.585 328.826 780.705C328.949 780.825 329.011 780.973 329.011 781.15C329.011 781.33 328.951 781.48 328.831 781.6C328.711 781.717 328.563 781.775 328.386 781.775ZM334.564 784.26V787.42H333.344V784.58C333.344 784.383 333.296 784.205 333.199 784.045C333.102 783.882 332.972 783.753 332.809 783.66C332.649 783.563 332.471 783.515 332.274 783.515C332.077 783.515 331.897 783.563 331.734 783.66C331.574 783.753 331.446 783.882 331.349 784.045C331.256 784.205 331.209 784.383 331.209 784.58V787.42H329.989L329.984 782.42H331.204L331.209 782.865C331.379 782.685 331.582 782.543 331.819 782.44C332.056 782.333 332.311 782.28 332.584 782.28C332.947 782.28 333.279 782.37 333.579 782.55C333.879 782.727 334.117 782.965 334.294 783.265C334.474 783.562 334.564 783.893 334.564 784.26ZM339.007 782.42H340.227V787.515C340.227 787.875 340.154 788.202 340.007 788.495C339.861 788.792 339.661 789.045 339.407 789.255C339.154 789.468 338.864 789.632 338.537 789.745C338.211 789.862 337.867 789.92 337.507 789.92C337.157 789.92 336.821 789.848 336.497 789.705C336.174 789.562 335.887 789.365 335.637 789.115C335.391 788.868 335.202 788.587 335.072 788.27L336.187 787.765C336.254 787.948 336.354 788.108 336.487 788.245C336.624 788.385 336.781 788.493 336.957 788.57C337.134 788.65 337.317 788.69 337.507 788.69C337.701 788.69 337.886 788.663 338.062 788.61C338.242 788.557 338.404 788.478 338.547 788.375C338.691 788.275 338.802 788.152 338.882 788.005C338.966 787.862 339.007 787.698 339.007 787.515V786.81C338.851 787.03 338.654 787.208 338.417 787.345C338.181 787.482 337.907 787.55 337.597 787.55C337.237 787.55 336.901 787.482 336.587 787.345C336.274 787.208 335.997 787.02 335.757 786.78C335.521 786.537 335.334 786.257 335.197 785.94C335.064 785.623 334.997 785.283 334.997 784.92C334.997 784.557 335.064 784.217 335.197 783.9C335.334 783.583 335.521 783.305 335.757 783.065C335.997 782.822 336.274 782.632 336.587 782.495C336.901 782.358 337.237 782.29 337.597 782.29C337.907 782.29 338.181 782.358 338.417 782.495C338.654 782.628 338.851 782.805 339.007 783.025V782.42ZM337.612 786.375C337.869 786.375 338.096 786.31 338.292 786.18C338.492 786.047 338.649 785.87 338.762 785.65C338.876 785.427 338.932 785.183 338.932 784.92C338.932 784.653 338.874 784.41 338.757 784.19C338.644 783.97 338.487 783.793 338.287 783.66C338.091 783.527 337.866 783.46 337.612 783.46C337.362 783.46 337.134 783.527 336.927 783.66C336.721 783.79 336.556 783.965 336.432 784.185C336.309 784.405 336.247 784.65 336.247 784.92C336.247 785.19 336.309 785.435 336.432 785.655C336.556 785.875 336.721 786.05 336.927 786.18C337.134 786.31 337.362 786.375 337.612 786.375Z" fill="white"/>
<g clip-path="url(#clip9_52_5420)">
<path d="M381.771 757.148V766.348C381.771 766.757 381.513 767.121 381.128 767.255C380.583 767.447 379.926 767.548 379.226 767.548C377.214 767.548 375.049 766.722 375.049 764.909V753.137C375.004 752.329 375.286 750.9 376.64 750.128C377.268 749.769 380.569 747.646 382.226 746.574C382.522 746.382 382.899 746.369 383.209 746.536C383.519 746.706 383.711 747.03 383.711 747.383V748.776C383.711 749.308 383.28 749.739 382.749 749.739C382.335 749.739 381.982 749.478 381.846 749.11C380.348 750.073 378.142 751.486 377.595 751.798C377.102 752.08 376.995 752.598 376.974 752.879C376.974 753.195 377.042 753.443 377.165 753.579C377.507 753.952 378.646 753.72 379.888 752.974C381.082 752.258 386.969 748.338 387.027 748.299C387.325 748.101 387.704 748.083 388.015 748.252C388.329 748.419 388.524 748.745 388.524 749.101V749.21C388.524 749.532 388.363 749.832 388.097 750.011C388.097 750.011 384.01 752.739 383.648 752.971C382.263 753.862 381.771 754.955 381.771 757.148ZM396.224 752.503V764.998C396.224 765.328 396.054 765.636 395.773 765.812C395.773 765.812 390.162 770.171 389.023 770.863C388.425 771.227 387.662 771.42 386.82 771.42C384.819 771.42 382.749 770.337 382.749 768.527V756.865V756.583C382.749 756.579 382.752 756.575 382.752 756.571C382.771 755.866 382.936 754.86 384.246 753.894C385.031 753.314 389.709 750.125 389.907 749.99C390.203 749.79 390.585 749.769 390.898 749.934C391.214 750.101 391.411 750.428 391.411 750.785V752.179C391.411 752.71 390.981 753.141 390.449 753.141C390.051 753.141 389.71 752.901 389.563 752.556C388.071 753.577 385.879 755.082 385.388 755.442C384.768 755.901 384.685 756.203 384.675 756.591C384.677 756.879 384.755 757.098 384.913 757.242C385.403 757.692 386.725 757.503 388.028 756.722C388.993 756.142 393.149 752.933 394.668 751.746C394.959 751.52 395.352 751.479 395.683 751.64C396.014 751.8 396.224 752.134 396.224 752.503ZM394.299 756.792L389.486 760.525V762.45L394.299 758.717V756.792Z" fill="#5F8CA4"/>
</g>
<path d="M370.411 787.42V780.42H371.631V786.2H374.546V787.42H370.411ZM375.48 782.42H376.7V787.42H375.48V782.42ZM376.1 781.775C375.92 781.775 375.769 781.717 375.645 781.6C375.522 781.48 375.46 781.33 375.46 781.15C375.46 780.973 375.522 780.825 375.645 780.705C375.769 780.585 375.919 780.525 376.095 780.525C376.272 780.525 376.42 780.585 376.54 780.705C376.664 780.825 376.725 780.973 376.725 781.15C376.725 781.33 376.665 781.48 376.545 781.6C376.425 781.717 376.277 781.775 376.1 781.775ZM380.417 782.28C380.903 782.28 381.347 782.398 381.747 782.635C382.147 782.872 382.465 783.19 382.702 783.59C382.938 783.987 383.057 784.427 383.057 784.91C383.057 785.273 382.988 785.615 382.852 785.935C382.715 786.255 382.525 786.537 382.282 786.78C382.042 787.02 381.762 787.208 381.442 787.345C381.125 787.482 380.783 787.55 380.417 787.55C380.103 787.55 379.825 787.48 379.582 787.34C379.342 787.197 379.14 787.012 378.977 786.785V787.42H377.757V779.92H378.977V783.045C379.14 782.818 379.342 782.635 379.582 782.495C379.825 782.352 380.103 782.28 380.417 782.28ZM380.402 786.37C380.662 786.37 380.897 786.305 381.107 786.175C381.32 786.042 381.49 785.865 381.617 785.645C381.743 785.425 381.807 785.18 381.807 784.91C381.807 784.643 381.743 784.4 381.617 784.18C381.49 783.957 381.32 783.78 381.107 783.65C380.893 783.52 380.658 783.455 380.402 783.455C380.148 783.455 379.922 783.522 379.722 783.655C379.522 783.785 379.365 783.962 379.252 784.185C379.138 784.405 379.082 784.647 379.082 784.91C379.082 785.18 379.138 785.427 379.252 785.65C379.365 785.87 379.522 786.045 379.722 786.175C379.922 786.305 380.148 786.37 380.402 786.37ZM383.681 787.42L383.676 782.42H384.896L384.901 782.865C385.071 782.685 385.274 782.543 385.511 782.44C385.747 782.333 386.002 782.28 386.276 782.28C386.459 782.28 386.642 782.307 386.826 782.36L386.346 783.59C386.219 783.54 386.092 783.515 385.966 783.515C385.769 783.515 385.589 783.563 385.426 783.66C385.266 783.753 385.137 783.882 385.041 784.045C384.947 784.205 384.901 784.383 384.901 784.58V787.42H383.681ZM390.757 782.42H391.977V787.42H390.757L390.702 786.8C390.566 787.023 390.384 787.205 390.157 787.345C389.934 787.482 389.669 787.55 389.362 787.55C388.992 787.55 388.646 787.48 388.322 787.34C387.999 787.2 387.714 787.007 387.467 786.76C387.224 786.513 387.032 786.228 386.892 785.905C386.756 785.582 386.687 785.235 386.687 784.865C386.687 784.508 386.752 784.173 386.882 783.86C387.016 783.547 387.201 783.272 387.437 783.035C387.674 782.798 387.947 782.613 388.257 782.48C388.567 782.347 388.901 782.28 389.257 782.28C389.587 782.28 389.882 782.353 390.142 782.5C390.406 782.647 390.629 782.833 390.812 783.06L390.757 782.42ZM389.332 786.375C389.592 786.375 389.822 786.31 390.022 786.18C390.222 786.05 390.379 785.875 390.492 785.655C390.606 785.432 390.662 785.187 390.662 784.92C390.662 784.65 390.606 784.405 390.492 784.185C390.379 783.962 390.221 783.785 390.017 783.655C389.817 783.525 389.589 783.46 389.332 783.46C389.076 783.46 388.841 783.527 388.627 783.66C388.417 783.79 388.249 783.965 388.122 784.185C387.999 784.405 387.937 784.65 387.937 784.92C387.937 785.19 388.001 785.435 388.127 785.655C388.254 785.875 388.422 786.05 388.632 786.18C388.846 786.31 389.079 786.375 389.332 786.375ZM392.814 787.42L392.809 782.42H394.029L394.034 782.865C394.204 782.685 394.407 782.543 394.644 782.44C394.88 782.333 395.135 782.28 395.409 782.28C395.592 782.28 395.775 782.307 395.959 782.36L395.479 783.59C395.352 783.54 395.225 783.515 395.099 783.515C394.902 783.515 394.722 783.563 394.559 783.66C394.399 783.753 394.27 783.882 394.174 784.045C394.08 784.205 394.034 784.383 394.034 784.58V787.42H392.814ZM399.765 782.42H401.06L398.325 789.92H397.03L397.935 787.42L396.135 782.42H397.47L398.545 785.75L399.765 782.42Z" fill="#5F8CA4"/>
<g filter="url(#filter0_d_52_5420)">
<path fill-rule="evenodd" clip-rule="evenodd" d="M422.174 52.5398C410.732 41.1413 395.212 34.7385 379.029 34.7385H109.961C93.7796 34.7385 78.2602 41.1413 66.8178 52.5398C55.3754 63.9383 48.9468 79.3968 48.9468 95.5162V766.567C48.9468 782.686 55.3754 798.144 66.8178 809.543C78.2602 820.941 93.7796 827.344 109.961 827.344H379.029C395.212 827.344 410.731 820.94 422.174 809.543C433.616 798.144 440.044 782.686 440.044 766.567V95.5162C440.044 79.3968 433.616 63.9383 422.174 52.5398ZM422.628 760.398C422.628 787.764 400.394 809.95 372.967 809.95H116.023C88.5968 809.95 66.3625 787.765 66.3625 760.398V100.771C66.3625 73.4038 88.5959 51.2188 116.023 51.2188H372.967C400.393 51.2188 422.628 73.4038 422.628 100.771V760.398Z" fill="#070710"/>
<path fill-rule="evenodd" clip-rule="evenodd" d="M441.926 345.082C441.441 345.557 440.777 345.848 440.044 345.848C438.551 345.848 437.339 344.64 437.339 343.15V262.191C437.339 260.701 438.551 259.493 440.044 259.493C440.777 259.493 441.441 259.784 441.926 260.258C441.417 260.747 441.103 261.433 441.103 262.192V343.151C441.103 343.91 441.417 344.596 441.926 345.084V345.082Z" fill="#070710"/>
<path fill-rule="evenodd" clip-rule="evenodd" d="M441.926 260.256C442.435 260.745 442.749 261.431 442.749 262.19V343.149C442.749 343.908 442.435 344.594 441.926 345.082C441.417 344.595 441.103 343.909 441.103 343.149V262.19C441.103 261.431 441.417 260.745 441.926 260.256Z" fill="#00728C"/>
<path fill-rule="evenodd" clip-rule="evenodd" d="M46.1455 360.869C47.2931 360.66 48.1418 359.646 48.1418 358.435V313.601C48.1418 312.577 47.5357 311.695 46.6562 311.304L46.8488 311.016C47.3558 310.51 48.0436 310.226 48.7615 310.226C49.4793 310.226 50.1671 310.51 50.6741 311.016C51.1812 311.522 51.4665 312.209 51.4665 312.925V360.42C51.4665 361.136 51.1812 361.823 50.6741 362.328C50.1671 362.835 49.4793 363.118 48.7615 363.118C48.0436 363.118 47.3567 362.835 46.8488 362.328C46.4508 361.931 46.19 361.423 46.1464 360.868L46.1455 360.869Z" fill="#070710"/>
<path fill-rule="evenodd" clip-rule="evenodd" d="M46.3608 292.706C47.4412 292.441 48.2235 291.458 48.2235 290.293V246.328C48.2235 245.163 47.4421 244.18 46.3608 243.915C46.7797 243.014 47.6983 242.404 48.7605 242.404C50.2543 242.404 51.4655 243.612 51.4655 245.103V291.519C51.4655 293.009 50.2543 294.217 48.7605 294.217C47.6983 294.217 46.7797 293.606 46.3608 292.706Z" fill="#070710"/>
<path fill-rule="evenodd" clip-rule="evenodd" d="M46.6108 216.327C46.9161 216.205 47.196 216.02 47.4332 215.784C47.9029 215.315 48.1673 214.679 48.1673 214.016V195.015C48.1673 194.353 47.9038 193.716 47.4332 193.247C47.196 193.012 46.9161 192.827 46.6108 192.704C47.0633 192.002 47.8602 191.564 48.7607 191.564C50.2545 191.564 51.4657 192.771 51.4657 194.263V214.771C51.4657 216.262 50.2545 217.47 48.7607 217.47C47.8611 217.47 47.0633 217.032 46.6108 216.329V216.327Z" fill="#070710"/>
<path fill-rule="evenodd" clip-rule="evenodd" d="M46.6554 311.304C47.5358 311.694 48.141 312.577 48.141 313.601V358.435C48.141 359.646 47.2923 360.66 46.1447 360.869L46.0557 360.42V312.925C46.0557 312.324 46.2556 311.745 46.6554 311.304Z" fill="#00728C"/>
<path fill-rule="evenodd" clip-rule="evenodd" d="M46.361 243.915C47.4413 244.18 48.2237 245.163 48.2237 246.328V290.293C48.2237 291.458 47.4422 292.441 46.361 292.706C46.1574 292.357 46.0557 291.949 46.0557 291.519V245.103C46.0557 244.672 46.1565 244.264 46.361 243.915Z" fill="#00728C"/>
<path fill-rule="evenodd" clip-rule="evenodd" d="M46.6108 192.702C46.9161 192.825 47.196 193.01 47.4332 193.245C47.9029 193.714 48.1673 194.351 48.1673 195.013V214.014C48.1673 214.677 47.9038 215.313 47.4332 215.782C47.196 216.018 46.9161 216.203 46.6108 216.325C46.2474 215.908 46.0557 215.36 46.0557 214.768V194.259C46.0557 193.665 46.2474 193.118 46.6108 192.701V192.702Z" fill="#00728C"/>
<path fill-rule="evenodd" clip-rule="evenodd" d="M421.214 54.044C409.771 42.6465 394.252 36.2437 378.07 36.2437H110.921C94.7391 36.2437 79.2197 42.6474 67.7772 54.044C56.3348 65.4425 49.9062 80.901 49.9062 97.0204V765.505C49.9062 781.624 56.3348 797.083 67.7772 808.481C79.2197 819.879 94.7391 826.283 110.921 826.283H378.07C394.253 826.283 409.771 819.879 421.214 808.481C432.656 797.083 439.084 781.624 439.084 765.505V97.0213C439.084 80.9019 432.656 65.4425 421.214 54.044ZM422.627 760.398C422.627 787.764 400.394 809.95 372.967 809.95H116.023C88.5967 809.95 66.3625 787.765 66.3625 760.398V100.771C66.3625 73.4039 88.5958 51.2189 116.023 51.2189H372.967C400.393 51.2189 422.627 73.4039 422.627 100.771V760.398Z" fill="#00728C"/>
<path d="M128.146 809.95H124.895V826.252H128.146V809.95Z" fill="#0F2535"/>
<path d="M66.3625 745.831H49.9062V749.103H66.3625V745.831Z" fill="#0F2535"/>
<path d="M439.084 113.393H422.628V116.665H439.084V113.393Z" fill="#0F2535"/>
<path d="M364.095 36.2437H360.844V51.2189H364.095V36.2437Z" fill="#0F2535"/>
<path fill-rule="evenodd" clip-rule="evenodd" d="M418.445 57.5309C407.003 46.1325 391.484 39.7288 375.302 39.7288H113.689C97.5072 39.7288 81.9877 46.1325 70.5453 57.5309C59.1029 68.9285 52.6743 84.387 52.6743 100.506V762.02C52.6743 778.139 59.1029 793.598 70.5453 804.996C81.9877 816.394 97.5072 822.797 113.689 822.797H375.302C391.484 822.797 407.003 816.394 418.445 804.996C429.888 793.599 436.316 778.139 436.316 762.02V100.506C436.316 84.387 429.888 68.9285 418.445 57.5309ZM422.628 760.398C422.628 787.764 400.395 809.95 372.967 809.95H116.023C88.5971 809.95 66.3629 787.765 66.3629 760.398V100.771C66.3629 73.4038 88.5962 51.2188 116.023 51.2188H372.967C400.394 51.2188 422.628 73.4038 422.628 100.771V760.398Z" fill="#0F2535"/>
<path d="M439.084 742.417H424.083V745.689H439.084V742.417Z" fill="#0F2535"/>
<path d="M63.4203 114.177H49.9062V117.449H63.4203V114.177Z" fill="#0F2535"/>
<path d="M371.714 42.5222H117.276C101.094 42.5222 85.5746 48.9359 74.1322 60.3534C62.6898 71.7709 56.2612 87.2566 56.2612 103.403V757.764C56.2612 773.91 62.6898 789.396 74.1322 800.814C85.5746 812.231 101.094 818.646 117.276 818.646H371.714C387.897 818.646 403.415 812.231 414.858 800.814C426.3 789.396 432.728 773.91 432.728 757.764V103.404C432.728 87.2566 426.3 71.7718 414.858 60.3543C403.415 48.9368 387.896 42.5222 371.714 42.5222ZM422.627 760.398C422.627 787.764 400.394 809.95 372.967 809.95H116.023C88.5967 809.95 66.3625 787.765 66.3625 760.398V100.771C66.3625 73.4047 88.5958 51.2189 116.023 51.2189H372.967C400.393 51.2189 422.627 73.4038 422.627 100.771V760.398Z" fill="#070710"/>
<path d="M284.454 66.5078H204.537C195.392 66.5078 187.979 73.9054 187.979 83.0307C187.979 92.156 195.392 99.5536 204.537 99.5536H284.454C293.599 99.5536 301.012 92.156 301.012 83.0307C301.012 73.9054 293.599 66.5078 284.454 66.5078Z" fill="#070710"/>
<path fill-rule="evenodd" clip-rule="evenodd" d="M287.91 42.5222H201.08C199.534 42.5222 198.281 41.271 198.281 39.7288H290.71C290.71 41.2719 289.456 42.5222 287.91 42.5222Z" fill="#161616"/>
<path fill-rule="evenodd" clip-rule="evenodd" d="M284.215 73.8652C289.25 73.8652 293.338 77.9724 293.338 83.0297C293.338 88.087 289.25 92.196 284.215 92.196C279.179 92.196 275.09 88.0889 275.09 83.0297C275.09 77.9706 279.179 73.8652 284.215 73.8652Z" fill="#131416"/>
<path fill-rule="evenodd" clip-rule="evenodd" d="M284.215 76.8181C287.628 76.8181 290.398 79.6025 290.398 83.0296C290.398 86.4568 287.627 89.2411 284.215 89.2411C280.803 89.2411 278.031 86.4577 278.031 83.0296C278.031 79.6016 280.802 76.8181 284.215 76.8181Z" fill="#252628"/>
<path fill-rule="evenodd" clip-rule="evenodd" d="M284.215 77.7566C287.112 77.7566 289.465 80.1193 289.465 83.0306C289.465 85.9419 287.112 88.3055 284.215 88.3055C281.318 88.3055 278.964 85.9419 278.964 83.0306C278.964 80.1193 281.317 77.7566 284.215 77.7566Z" fill="#02050D"/>
<path fill-rule="evenodd" clip-rule="evenodd" d="M285.761 79.4567C287.568 78.6896 288.208 81.056 288.208 83.0271C288.208 84.9981 287.612 87.2467 285.761 86.5966C284.521 86.1614 284.28 80.0859 285.761 79.4567Z" fill="#002599"/>
<path fill-rule="evenodd" clip-rule="evenodd" d="M282.781 78.957C285.084 78.957 283.61 80.3559 283.61 82.6697C283.61 84.9835 285.144 86.8041 282.84 86.8041C280.536 86.8041 280.04 85.3453 280.04 83.0297C280.04 80.7141 280.477 78.957 282.781 78.957Z" fill="#02050D"/>
<path fill-rule="evenodd" clip-rule="evenodd" d="M287.91 42.5222H201.08C199.534 42.5222 198.281 41.271 198.281 39.7288H290.71C290.71 41.2719 289.456 42.5222 287.91 42.5222Z" fill="#00728C"/>
<mask id="mask0_52_5420" style="mask-type:luminance" maskUnits="userSpaceOnUse" x="198" y="39" width="93" height="4">
<path fill-rule="evenodd" clip-rule="evenodd" d="M287.91 42.5222H201.08C199.534 42.5222 198.281 41.271 198.281 39.7288H290.71C290.71 41.2719 289.456 42.5222 287.91 42.5222Z" fill="white"/>
</mask>
<g mask="url(#mask0_52_5420)">
<path fill-rule="evenodd" clip-rule="evenodd" d="M287.91 42.0969H201.08C199.534 42.0969 198.281 40.8457 198.281 39.3035H290.71C290.71 40.8466 289.456 42.0969 287.91 42.0969Z" fill="#161616"/>
</g>
</g>
<path d="M108.685 89.9783L110.702 86.4908C110.207 86.5208 109.735 86.4533 109.285 86.2883C108.84 86.1233 108.442 85.8783 108.092 85.5533C107.742 85.2283 107.465 84.8433 107.26 84.3983C107.06 83.9533 106.96 83.4708 106.96 82.9508C106.96 82.4458 107.055 81.9733 107.245 81.5333C107.435 81.0883 107.697 80.6983 108.032 80.3633C108.372 80.0233 108.762 79.7583 109.202 79.5683C109.647 79.3783 110.125 79.2833 110.635 79.2833C111.3 79.2833 111.907 79.4483 112.457 79.7783C113.012 80.1083 113.455 80.5508 113.785 81.1058C114.12 81.6608 114.287 82.2758 114.287 82.9508C114.287 83.2858 114.245 83.6033 114.16 83.9033C114.08 84.1983 113.952 84.4983 113.777 84.8033L110.8 89.9783H108.685ZM110.62 84.7883C110.98 84.7883 111.297 84.7008 111.572 84.5258C111.852 84.3508 112.07 84.1233 112.225 83.8433C112.38 83.5633 112.457 83.2633 112.457 82.9433C112.457 82.5933 112.372 82.2808 112.202 82.0058C112.032 81.7258 111.807 81.5083 111.527 81.3533C111.247 81.1933 110.95 81.1133 110.635 81.1133C110.275 81.1133 109.955 81.2008 109.675 81.3758C109.4 81.5458 109.182 81.7708 109.022 82.0508C108.862 82.3308 108.782 82.6283 108.782 82.9433C108.782 83.2783 108.862 83.5858 109.022 83.8658C109.187 84.1458 109.407 84.3708 109.682 84.5408C109.962 84.7058 110.275 84.7883 110.62 84.7883ZM116.115 84.3608C115.855 84.3608 115.632 84.2708 115.447 84.0908C115.267 83.9058 115.177 83.6808 115.177 83.4158C115.177 83.1608 115.267 82.9408 115.447 82.7558C115.632 82.5708 115.855 82.4783 116.115 82.4783C116.375 82.4783 116.597 82.5708 116.782 82.7558C116.967 82.9408 117.06 83.1608 117.06 83.4158C117.06 83.6808 116.967 83.9058 116.782 84.0908C116.597 84.2708 116.375 84.3608 116.115 84.3608ZM116.115 90.1733C115.855 90.1733 115.632 90.0833 115.447 89.9033C115.267 89.7183 115.177 89.4933 115.177 89.2283C115.177 88.9733 115.267 88.7533 115.447 88.5683C115.632 88.3833 115.855 88.2908 116.115 88.2908C116.375 88.2908 116.597 88.3833 116.782 88.5683C116.967 88.7533 117.06 88.9733 117.06 89.2283C117.06 89.4933 116.967 89.7183 116.782 89.9033C116.597 90.0833 116.375 90.1733 116.115 90.1733ZM122.866 89.9783V87.4358H118.396V85.5983L122.438 79.4783H124.696V85.6058H125.581V87.4358H124.696V89.9783H122.866ZM120.518 85.5983L122.866 85.6058L122.858 81.9758L120.518 85.5983ZM128.237 89.9783V81.3083H126.917L127.412 79.4783H130.067V89.9783H128.237Z" fill="white"/>
<path fill-rule="evenodd" clip-rule="evenodd" d="M372.896 79.2283H387.717C388.965 79.2283 389.418 79.3582 389.874 79.6023C390.331 79.8463 390.689 80.2044 390.933 80.6607C391.177 81.117 391.307 81.5696 391.307 82.8177V87.1388C391.307 88.387 391.177 88.8396 390.933 89.2959C390.689 89.7522 390.331 90.1103 389.874 90.3543C389.418 90.5983 388.965 90.7283 387.717 90.7283H372.896C371.648 90.7283 371.195 90.5983 370.739 90.3543C370.283 90.1103 369.925 89.7522 369.681 89.2959C369.437 88.8396 369.307 88.387 369.307 87.1388V82.8177C369.307 81.5696 369.437 81.117 369.681 80.6607C369.925 80.2044 370.283 79.8463 370.739 79.6023C371.195 79.3582 371.648 79.2283 372.896 79.2283ZM372.896 80.2283C371.909 80.2283 371.565 80.2948 371.211 80.4841C370.929 80.6349 370.713 80.8503 370.562 81.1323C370.373 81.4862 370.307 81.8307 370.307 82.8177V87.1388C370.307 88.1258 370.373 88.4704 370.562 88.8243C370.713 89.1063 370.929 89.3216 371.211 89.4725C371.565 89.6617 371.909 89.7283 372.896 89.7283H387.717C388.704 89.7283 389.049 89.6617 389.403 89.4725C389.685 89.3216 389.9 89.1063 390.051 88.8243C390.24 88.4704 390.307 88.1258 390.307 87.1388V82.8177C390.307 81.8307 390.24 81.4862 390.051 81.1323C389.9 80.8503 389.685 80.6349 389.403 80.4841C389.049 80.2948 388.704 80.2283 387.717 80.2283H372.896ZM393.807 84.9183C393.807 86.1548 392.307 86.9183 392.307 86.9183V82.9183C392.307 82.9183 393.807 83.6817 393.807 84.9183Z" fill="white" fill-opacity="0.37"/>
<rect x="371.307" y="81.145" width="18" height="7.66667" rx="1.6" fill="white"/>
<path fill-rule="evenodd" clip-rule="evenodd" d="M340.93 80.6341C340.907 80.75 340.907 80.8894 340.907 81.1682V88.8682C340.907 89.147 340.907 89.2864 340.93 89.4023C341.024 89.8783 341.396 90.2505 341.873 90.3452C341.988 90.3682 342.128 90.3682 342.407 90.3682C342.685 90.3682 342.825 90.3682 342.941 90.3452C343.417 90.2505 343.789 89.8783 343.884 89.4023C343.907 89.2864 343.907 89.147 343.907 88.8682V81.1682C343.907 80.8894 343.907 80.75 343.884 80.6341C343.789 80.1581 343.417 79.786 342.941 79.6913C342.825 79.6682 342.685 79.6682 342.407 79.6682C342.128 79.6682 341.988 79.6682 341.873 79.6913C341.396 79.786 341.024 80.1581 340.93 80.6341ZM336.207 83.5682C336.207 83.2894 336.207 83.15 336.23 83.0341C336.324 82.5581 336.696 82.186 337.173 82.0913C337.288 82.0682 337.428 82.0682 337.707 82.0682C337.985 82.0682 338.125 82.0682 338.241 82.0913C338.717 82.186 339.089 82.5581 339.184 83.0341C339.207 83.15 339.207 83.2894 339.207 83.5682V88.8682C339.207 89.147 339.207 89.2864 339.184 89.4023C339.089 89.8784 338.717 90.2505 338.241 90.3452C338.125 90.3682 337.985 90.3682 337.707 90.3682C337.428 90.3682 337.288 90.3682 337.173 90.3452C336.696 90.2505 336.324 89.8784 336.23 89.4023C336.207 89.2864 336.207 89.147 336.207 88.8682V83.5682ZM331.63 85.3341C331.607 85.45 331.607 85.5894 331.607 85.8682V88.8682C331.607 89.147 331.607 89.2864 331.63 89.4023C331.724 89.8784 332.096 90.2505 332.573 90.3452C332.688 90.3682 332.828 90.3682 333.107 90.3682C333.385 90.3682 333.525 90.3682 333.641 90.3452C334.117 90.2505 334.489 89.8784 334.584 89.4023C334.607 89.2864 334.607 89.147 334.607 88.8682V85.8682C334.607 85.5894 334.607 85.45 334.584 85.3341C334.489 84.8581 334.117 84.486 333.641 84.3913C333.525 84.3682 333.385 84.3682 333.107 84.3682C332.828 84.3682 332.688 84.3682 332.573 84.3913C332.096 84.486 331.724 84.8581 331.63 85.3341ZM326.83 87.3341C326.807 87.45 326.807 87.5894 326.807 87.8682V88.8682C326.807 89.147 326.807 89.2864 326.83 89.4023C326.924 89.8784 327.297 90.2505 327.773 90.3452C327.888 90.3682 328.028 90.3682 328.307 90.3682C328.585 90.3682 328.725 90.3682 328.841 90.3452C329.317 90.2505 329.689 89.8784 329.784 89.4023C329.807 89.2864 329.807 89.147 329.807 88.8682V87.8682C329.807 87.5894 329.807 87.45 329.784 87.3341C329.689 86.8581 329.317 86.486 328.841 86.3913C328.725 86.3682 328.585 86.3682 328.307 86.3682C328.028 86.3682 327.888 86.3682 327.773 86.3913C327.297 86.486 326.924 86.8581 326.83 87.3341Z" fill="white"/>
<path fill-rule="evenodd" clip-rule="evenodd" d="M356.607 81.7646C358.842 81.7647 360.991 82.6233 362.61 84.1628C362.732 84.2817 362.927 84.2802 363.047 84.1595L364.213 82.9831C364.273 82.9218 364.307 82.8389 364.307 82.7526C364.306 82.6663 364.271 82.5838 364.21 82.5232C359.96 78.4499 353.254 78.4499 349.004 82.5232C348.942 82.5837 348.907 82.6662 348.907 82.7525C348.906 82.8388 348.94 82.9218 349.001 82.9831L350.167 84.1595C350.287 84.2804 350.482 84.2819 350.604 84.1628C352.223 82.6232 354.373 81.7646 356.607 81.7646ZM356.607 85.592C357.835 85.5919 359.019 86.0482 359.929 86.8723C360.052 86.9892 360.246 86.9867 360.366 86.8666L361.53 85.6902C361.591 85.6284 361.625 85.5447 361.624 85.4578C361.624 85.3708 361.588 85.2878 361.525 85.2273C358.754 82.6496 354.463 82.6496 351.691 85.2273C351.629 85.2878 351.593 85.3708 351.592 85.4578C351.591 85.5448 351.626 85.6285 351.687 85.6902L352.851 86.8666C352.971 86.9867 353.165 86.9892 353.288 86.8723C354.197 86.0488 355.38 85.5925 356.607 85.592ZM358.845 88.3996C358.907 88.3385 358.941 88.2544 358.939 88.1672C358.938 88.0799 358.9 87.9973 358.835 87.9388C357.549 86.8509 355.665 86.8509 354.379 87.9388C354.314 87.9973 354.277 88.0799 354.275 88.1671C354.273 88.2543 354.307 88.3385 354.369 88.3996L356.384 90.4321C356.443 90.4919 356.523 90.5255 356.607 90.5255C356.691 90.5255 356.772 90.4919 356.831 90.4321L358.845 88.3996Z" fill="white"/>
<path d="M86.8301 109.949L81.8301 117.449L86.8301 124.949" stroke="#009DFF" stroke-width="2" stroke-linecap="round" stroke-linejoin="round"/>
<g clip-path="url(#clip10_52_5420)">
<g clip-path="url(#clip11_52_5420)">
<path d="M185.676 107.538C180.211 107.538 175.765 111.984 175.765 117.449C175.765 118.573 176.676 119.484 177.8 119.484C178.924 119.484 179.835 118.573 179.835 117.449C179.835 114.229 182.455 111.608 185.676 111.608C188.896 111.608 191.517 114.229 191.517 117.449C191.517 119.955 189.931 122.097 187.711 122.924V117.449C187.711 116.325 186.8 115.414 185.676 115.414C184.552 115.414 183.641 116.325 183.641 117.449V125.325C183.641 126.449 184.552 127.36 185.676 127.36C191.141 127.36 195.587 122.914 195.587 117.449C195.587 111.984 191.141 107.538 185.676 107.538Z" fill="url(#paint0_linear_52_5420)"/>
<path style="mix-blend-mode:multiply" d="M185.676 115.414C184.552 115.414 183.641 116.325 183.641 117.449V122.924C184.949 123.408 186.399 123.408 187.711 122.923V117.449C187.711 116.325 186.8 115.414 185.676 115.414Z" fill="url(#paint1_linear_52_5420)"/>
</g>
<path d="M219.679 118.111C219.679 120.109 218.972 121.864 217.237 122.854C216.113 123.488 214.844 123.65 213.639 123.65H209.751C209.607 123.65 209.494 123.537 209.494 123.407V112.832C209.494 112.702 209.607 112.589 209.751 112.589H213.848C215.534 112.589 217.093 112.914 218.362 114.278C219.165 115.139 219.679 116.39 219.679 118.111ZM211.807 114.554V121.685H213.478C214.297 121.685 215.052 121.555 215.679 121.246C216.836 120.662 217.317 119.525 217.317 118.111C217.317 116.974 217.012 116.162 216.482 115.594C215.823 114.879 214.779 114.554 213.526 114.554H211.807Z" fill="white"/>
<path d="M235.602 118.891C235.28 119.167 234.959 119.346 234.622 119.492L236.999 123.228C237.112 123.423 237.128 123.65 236.855 123.65H234.847C234.622 123.65 234.493 123.618 234.381 123.407L232.228 119.817H230.156V123.407C230.156 123.537 230.059 123.65 229.915 123.65H228.1C227.955 123.65 227.843 123.537 227.843 123.407V112.832C227.843 112.702 227.955 112.589 228.1 112.589H232.79C233.851 112.589 234.814 112.784 235.553 113.336C236.357 113.937 236.823 114.977 236.823 116.178C236.823 117.234 236.437 118.176 235.602 118.891ZM232.598 114.57H230.156V117.835H232.405C232.999 117.835 233.481 117.787 233.819 117.559C234.204 117.316 234.477 116.861 234.477 116.211C234.477 115.561 234.236 115.139 233.867 114.879C233.513 114.652 233.08 114.57 232.598 114.57Z" fill="white"/>
<path d="M247.008 121.409L246.349 123.374C246.285 123.569 246.157 123.65 245.948 123.65H244.148C243.988 123.65 243.924 123.569 243.924 123.455C243.924 123.407 243.94 123.358 243.956 123.293L247.699 112.8C247.747 112.605 247.875 112.54 248.084 112.54H249.996C250.205 112.54 250.333 112.605 250.381 112.8L254.076 123.293C254.092 123.358 254.108 123.407 254.108 123.455C254.108 123.569 254.044 123.65 253.883 123.65H252.036C251.811 123.65 251.683 123.569 251.634 123.374L250.976 121.409H247.008ZM250.414 119.541L249.016 115.383L247.586 119.541H250.414Z" fill="white"/>
<path d="M272.246 120.743L274.414 112.865C274.463 112.67 274.591 112.589 274.816 112.589H276.696C276.936 112.589 276.936 112.8 276.888 112.93L273.627 123.455C273.563 123.634 273.451 123.699 273.242 123.699H271.218C271.009 123.699 270.88 123.634 270.832 123.455L268.631 116.942H268.599L266.511 123.455C266.446 123.634 266.334 123.699 266.125 123.699H264.085C263.876 123.699 263.764 123.634 263.7 123.455L260.358 112.93C260.31 112.8 260.294 112.589 260.535 112.589H262.43C262.639 112.589 262.784 112.67 262.832 112.865L265.097 120.743H265.129L267.507 112.865C267.571 112.67 267.7 112.589 267.908 112.589H269.306C269.531 112.589 269.643 112.67 269.708 112.865L272.214 120.743H272.246Z" fill="white"/>
<path d="M285.56 122.53C285.56 123.244 284.997 123.813 284.291 123.813C283.584 123.813 283.022 123.244 283.022 122.53C283.022 121.799 283.584 121.23 284.291 121.23C284.997 121.23 285.56 121.799 285.56 122.53Z" fill="white"/>
<path d="M294.057 112.589H295.873C296.017 112.589 296.114 112.702 296.114 112.832V123.407C296.114 123.537 296.017 123.65 295.873 123.65H294.057C293.913 123.65 293.8 123.537 293.8 123.407V112.832C293.8 112.702 293.913 112.589 294.057 112.589Z" fill="white"/>
<path d="M304.006 112.589H312.873C313.018 112.589 313.131 112.702 313.131 112.832V114.424C313.131 114.554 313.018 114.668 312.873 114.668H309.596V123.407C309.596 123.537 309.484 123.65 309.355 123.65H307.524C307.396 123.65 307.283 123.537 307.283 123.407V114.668H304.006C303.877 114.668 303.765 114.554 303.765 114.424V112.832C303.765 112.702 303.877 112.589 304.006 112.589Z" fill="white"/>
</g>
<defs>
<filter id="filter0_d_52_5420" x="28.1557" y="16.8385" width="432.494" height="828.406" filterUnits="userSpaceOnUse" color-interpolation-filters="sRGB">
<feFlood flood-opacity="0" result="BackgroundImageFix"/>
<feColorMatrix in="SourceAlpha" type="matrix" values="0 0 0 0 0 0 0 0 0 0 0 0 0 0 0 0 0 0 127 0" result="hardAlpha"/>
<feOffset/>
<feGaussianBlur stdDeviation="8.95"/>
<feComposite in2="hardAlpha" operator="out"/>
<feColorMatrix type="matrix" values="0 0 0 0 0.0588235 0 0 0 0 0.145098 0 0 0 0 0.207843 0 0 0 1 0"/>
<feBlend mode="normal" in2="BackgroundImageFix" result="effect1_dropShadow_52_5420"/>
<feBlend mode="normal" in="SourceGraphic" in2="effect1_dropShadow_52_5420" result="shape"/>
</filter>
<linearGradient id="paint0_linear_52_5420" x1="184.395" y1="156.7" x2="185.637" y2="118.647" gradientUnits="userSpaceOnUse">
<stop stop-color="#12277A"/>
<stop offset="0.047" stop-color="#1E3280"/>
<stop offset="0.523" stop-color="#959FC3"/>
<stop offset="0.85" stop-color="#E1E4EE"/>
<stop offset="1" stop-color="white"/>
</linearGradient>
<linearGradient id="paint1_linear_52_5420" x1="179.696" y1="126.999" x2="186.954" y2="118.282" gradientUnits="userSpaceOnUse">
<stop stop-color="#1B3E6B"/>
<stop offset="0.013" stop-color="#1E406D"/>
<stop offset="0.506" stop-color="#95A6BA"/>
<stop offset="0.845" stop-color="#E1E5EB"/>
<stop offset="1" stop-color="white"/>
</linearGradient>
<clipPath id="clip0_52_5420">
<rect width="25" height="25" fill="white" transform="translate(115.234 674.635)"/>
</clipPath>
<clipPath id="clip1_52_5420">
<rect width="25" height="25" fill="white" transform="translate(174.234 674.635)"/>
</clipPath>
<clipPath id="clip2_52_5420">
<rect width="25" height="25" fill="white" transform="translate(233.234 674.635)"/>
</clipPath>
<clipPath id="clip3_52_5420">
<rect width="25" height="25" fill="white" transform="translate(292.234 674.635)"/>
</clipPath>
<clipPath id="clip4_52_5420">
<rect width="25" height="25" fill="white" transform="translate(351.234 674.635)"/>
</clipPath>
<clipPath id="clip5_52_5420">
<rect width="25" height="25" fill="white" transform="translate(89.1343 746.42)"/>
</clipPath>
<clipPath id="clip6_52_5420">
<rect width="25" height="25" fill="white" transform="translate(160.134 746.42)"/>
</clipPath>
<clipPath id="clip7_52_5420">
<rect width="25" height="25" fill="white" transform="translate(231.134 746.42)"/>
</clipPath>
<clipPath id="clip8_52_5420">
<rect width="25" height="25" fill="white" transform="translate(302.134 746.42)"/>
</clipPath>
<clipPath id="clip9_52_5420">
<rect width="25" height="25" fill="white" transform="translate(373.134 746.42)"/>
</clipPath>
<clipPath id="clip10_52_5420">
<rect width="137" height="24" fill="white" transform="translate(175.903 105.449)"/>
</clipPath>
<clipPath id="clip11_52_5420">
<rect width="20" height="20" fill="white" transform="translate(175.676 107.449)"/>
</clipPath>
</defs>
</svg>
