<svg width="84" height="85" viewBox="0 0 84 85" fill="none" xmlns="http://www.w3.org/2000/svg">
<path d="M42 0.553467C18.804 0.553467 0 19.3575 0 42.5535C0 65.7495 18.804 84.5535 42 84.5535C65.196 84.5535 84 65.7495 84 42.5535C84 19.3575 65.196 0.553467 42 0.553467ZM29.436 55.3785C28.746 55.3785 28.056 55.1145 27.528 54.5865C26.472 53.5305 26.472 51.8205 27.528 50.7675L35.742 42.5535L27.528 34.3365C26.472 33.2835 26.472 31.5735 27.528 30.5205C28.584 29.4645 30.291 29.4645 31.344 30.5205L41.469 40.6455C42.525 41.6985 42.525 43.4085 41.469 44.4615L31.344 54.5865C30.819 55.1145 30.129 55.3785 29.436 55.3785ZM56.472 44.4615L40.347 60.5865C39.819 61.1145 39.129 61.3785 38.439 61.3785C37.749 61.3785 37.059 61.1145 36.531 60.5865C35.475 59.5305 35.475 57.8205 36.531 56.7675L50.745 42.5535L36.528 28.3365C35.472 27.2835 35.472 25.5735 36.528 24.5205C37.584 23.4645 39.291 23.4645 40.344 24.5205L56.469 40.6455C57.528 41.6985 57.528 43.4085 56.472 44.4615Z" fill="white" fill-opacity="0.7"/>
</svg>
