<svg width="25" height="26" viewBox="0 0 25 26" fill="none" xmlns="http://www.w3.org/2000/svg">
<g clip-path="url(#clip0_185_969)">
<path d="M8.94484 11.2281V20.4277C8.94484 20.8368 8.68689 21.2006 8.30189 21.3353C7.75711 21.5269 7.09972 21.6279 6.39999 21.6279C4.3874 21.6279 2.22273 20.8021 2.22273 18.9888V7.21737C2.17749 6.40887 2.45951 4.98052 3.81374 4.20763C4.44226 3.84862 7.74267 1.7263 9.4001 0.654078C9.69559 0.46254 10.0729 0.449065 10.3828 0.61654C10.6927 0.785941 10.8852 1.1103 10.8852 1.46258V2.85628C10.8852 3.38758 10.454 3.81878 9.92274 3.81878C9.50886 3.81878 9.15562 3.55794 9.01991 3.19027C7.52226 4.15277 5.31621 5.56572 4.76855 5.87853C4.27575 6.16055 4.16891 6.67837 4.14773 6.95942C4.14773 7.27512 4.21607 7.52345 4.33927 7.65916C4.68096 8.03165 5.8196 7.79968 7.06219 7.05375C8.25569 6.33765 14.1423 2.41834 14.2011 2.37888C14.4985 2.18157 14.8777 2.16328 15.1886 2.33172C15.5024 2.49919 15.6977 2.82548 15.6977 3.18064V3.29037C15.6977 3.61184 15.537 3.91214 15.2704 4.09117C15.2704 4.09117 11.1836 6.8189 10.8217 7.05086C9.43668 7.94213 8.94484 9.03554 8.94484 11.2281ZM23.3978 6.58308V19.0783C23.3978 19.4084 23.2274 19.7164 22.9473 19.8925C22.9473 19.8925 17.3359 24.2507 16.1973 24.9428C15.5986 25.3076 14.8363 25.5001 13.9941 25.5001C11.9931 25.5001 9.92274 24.4173 9.92274 22.6068V10.9451V10.6631C9.92274 10.6593 9.92563 10.6554 9.92563 10.6506C9.94488 9.94606 10.1095 8.94025 11.4194 7.9739C12.2048 7.39447 16.8826 4.20474 17.0809 4.06999C17.3763 3.86979 17.7585 3.84862 18.0722 4.01417C18.3879 4.18068 18.5852 4.50793 18.5852 4.86502V6.25872C18.5852 6.79002 18.155 7.22122 17.6227 7.22122C17.2252 7.22122 16.8835 6.9806 16.7372 6.63602C15.2444 7.65723 13.0528 9.16162 12.5619 9.52256C11.9421 9.98071 11.8593 10.2829 11.8487 10.6708C11.8506 10.9586 11.9286 11.1781 12.0864 11.3224C12.5773 11.7719 13.8988 11.5833 15.2021 10.8017C16.1665 10.2223 20.3226 7.01332 21.8414 5.8256C22.133 5.60037 22.5257 5.55898 22.8568 5.71972C23.1879 5.88046 23.3978 6.21445 23.3978 6.58308ZM21.4727 10.872L16.6602 14.6055V16.5305L21.4727 12.797V10.872Z" fill="#009DFF"/>
</g>
<defs>
<clipPath id="clip0_185_969">
<rect width="25" height="25" fill="white" transform="translate(0 0.5)"/>
</clipPath>
</defs>
</svg>
