<svg width="25" height="26" viewBox="0 0 25 26" fill="none" xmlns="http://www.w3.org/2000/svg">
<g clip-path="url(#clip0_185_961)">
<path d="M22.9192 3.29248C20.5421 0.913831 16.7064 0.540654 12.8077 1.91435C8.9098 0.539352 5.0749 0.91331 2.69626 3.29248C0.31761 5.67164 -0.0555674 9.50576 1.31813 13.4039C-0.0555674 17.3021 0.317349 21.1368 2.69626 23.5154C4.16605 24.9857 6.19313 25.6904 8.44521 25.6904C9.93386 25.6726 11.4088 25.4034 12.8077 24.894C14.2066 25.4034 15.6816 25.6726 17.1702 25.6904C19.4231 25.6904 21.4496 24.9854 22.9192 23.5154C25.2981 21.1368 25.6723 17.3021 24.2973 13.4039C25.6723 9.50576 25.2981 5.67112 22.9192 3.29248ZM17.1598 3.17529C18.9142 3.17529 20.3983 3.71774 21.4463 4.76539C22.7645 6.08362 23.2817 8.09144 22.9265 10.4612C21.181 7.49988 18.7117 5.03054 15.7504 3.28492C16.2168 3.2135 16.6879 3.17686 17.1598 3.17529ZM12.8077 22.6844C10.7426 21.7989 8.86982 20.5194 7.29417 18.9175C5.69223 17.3418 4.41273 15.4691 3.52725 13.4039C4.41273 11.3388 5.69223 9.46604 7.29417 7.89039C8.86982 6.28845 10.7426 5.00895 12.8077 4.12347C14.8729 5.00895 16.7456 6.28845 18.3213 7.89039C19.9232 9.46604 21.2027 11.3388 22.0882 13.4039C21.2027 15.4691 19.9232 17.3418 18.3213 18.9175C16.7456 20.5194 14.8729 21.7989 12.8077 22.6844ZM4.16917 4.76539C5.21735 3.71774 6.70094 3.17529 8.45563 3.17529C8.92792 3.17682 9.39945 3.21346 9.86631 3.28492C6.90444 5.03023 4.4347 7.49962 2.68896 10.4612C2.33376 8.09144 2.85094 6.08362 4.16917 4.76539ZM4.16917 22.0425C2.85094 20.7242 2.33376 18.7164 2.68896 16.3466C3.55544 17.8234 4.60817 19.1826 5.82126 20.3909C7.02928 21.604 8.38835 22.6565 9.86501 23.5227C7.49521 23.8782 5.4874 23.3607 4.16917 22.0425ZM21.4463 22.0425C20.1278 23.3607 18.1202 23.8784 15.7504 23.5227C17.2272 22.6563 18.5865 21.6036 19.7947 20.3904C21.0076 19.1822 22.0601 17.8232 22.9265 16.3466C23.2817 18.7164 22.7645 20.7242 21.4463 22.0425Z" fill="#009DFF"/>
<path d="M17.5451 9.40942C17.5373 9.40421 17.5302 9.39796 17.5222 9.39275C17.5068 9.38338 17.4904 9.37635 17.4748 9.36671C17.4591 9.35708 17.4524 9.35239 17.4404 9.3464L13.2737 7.26307C13.1291 7.19073 12.9696 7.15308 12.8078 7.15308C12.6461 7.15308 12.4866 7.19073 12.342 7.26307L8.17529 9.3464C8.16331 9.35239 8.15264 9.3602 8.14118 9.36645C8.12529 9.37531 8.10889 9.38234 8.09352 9.39249C8.08519 9.3977 8.07816 9.40395 8.06982 9.40942L12.8094 11.7792L17.549 9.40942H17.5451Z" fill="#009DFF"/>
<path d="M13.3286 18.4748L17.4403 16.4191C17.6134 16.3326 17.7589 16.1996 17.8606 16.035C17.9623 15.8704 18.0161 15.6808 18.0161 15.4873V10.3405L13.3286 12.6842V18.4748Z" fill="#009DFF"/>
<path d="M7.59961 15.4873C7.59959 15.6808 7.65345 15.8704 7.75515 16.035C7.85684 16.1996 8.00236 16.3326 8.17539 16.4191L12.2871 18.4748V12.6842L7.59961 10.3405V15.4873Z" fill="#009DFF"/>
</g>
<defs>
<clipPath id="clip0_185_961">
<rect width="25" height="25" fill="white" transform="translate(0 0.5)"/>
</clipPath>
</defs>
</svg>
