<svg width="25" height="26" viewBox="0 0 25 26" fill="none" xmlns="http://www.w3.org/2000/svg">
<g clip-path="url(#clip0_185_957)">
<path d="M19.8958 20.8713C19.8387 20.8142 19.803 20.7499 19.7816 20.6785L19.6315 20.1927C19.5315 19.857 19.2244 19.6356 18.8744 19.6356C18.5244 19.6356 18.2173 19.857 18.1101 20.1927L17.9601 20.6785C17.9101 20.8499 17.7744 20.9856 17.603 21.0356L17.1244 21.1856C16.7816 21.2927 16.5601 21.5927 16.5601 21.9499C16.5601 22.2999 16.7816 22.607 17.1173 22.707L17.4173 22.7999C16.2315 23.4713 14.9173 23.9142 13.5458 24.0642C8.7887 24.8427 3.89586 21.4499 2.9887 16.6856C2.11014 13.0284 4.02442 9.03557 7.63871 7.79272C9.93154 6.97842 12.7458 7.21415 14.403 9.20704C15.203 10.2142 15.5244 11.557 15.2101 12.807C14.9315 13.9927 13.6958 15.1142 12.453 14.807C12.253 14.7642 12.2101 14.4784 12.3887 14.3785C13.453 13.7427 13.753 12.5284 13.3958 11.4142C12.753 9.59274 10.3315 9.46417 8.66013 10.2713C5.63156 11.707 5.43154 15.5927 7.16725 18.0856C10.0673 22.5641 16.9101 21.5356 19.9458 17.6141C21.0887 16.2356 21.853 14.4999 22.1602 12.5856C22.1959 12.2785 22.6744 12.2856 22.7101 12.5856C23.2101 15.6499 22.0173 18.6856 19.8958 20.8713ZM20.4387 9.82847C19.5315 5.06415 14.6387 1.67129 9.88157 2.44988C8.22443 2.62845 6.66014 3.23558 5.29583 4.15703L5.44584 4.20704C5.78869 4.307 6.01727 4.62129 6.01727 4.97844C6.01727 5.33558 5.78869 5.64272 5.44584 5.74988L4.88868 5.9213C4.653 5.99986 4.46728 6.17843 4.39582 6.41416L4.2244 6.97843C4.11728 7.32132 3.81015 7.54989 3.44585 7.54989C3.09586 7.54989 2.78157 7.32132 2.67441 6.97843L2.603 6.7356C1.07442 8.78559 0.295829 11.3427 0.717274 13.9285C0.752981 14.2284 1.23154 14.2284 1.26729 13.9285C1.57443 12.0142 2.33872 10.2785 3.48156 8.89986C6.51727 4.97844 13.3601 3.94987 16.2601 8.4213C17.9958 10.9142 17.7958 14.7999 14.7673 16.2356C13.0959 17.0499 10.6744 16.9142 10.0315 15.0999C9.6744 13.9856 9.97439 12.7713 11.0387 12.1356C11.2173 12.0356 11.1744 11.7428 10.9744 11.6999C9.73156 11.3999 8.49586 12.5213 8.21727 13.707C7.90299 14.957 8.22442 16.2927 9.02442 17.307C10.6816 19.2999 13.4959 19.5356 15.7887 18.7213C19.403 17.4713 21.3173 13.4856 20.4387 9.82847ZM2.23575 20.4888L2.04747 21.0994C1.89181 21.6041 1.49667 21.9993 0.991927 22.1549L0.38138 22.3432C0.283681 22.3733 0.283681 22.5116 0.38138 22.5417L0.991927 22.73C1.49667 22.8857 1.89181 23.2808 2.04747 23.7856L2.23575 24.3961C2.26588 24.4938 2.40418 24.4938 2.43431 24.3961L2.62259 23.7856C2.77825 23.2808 3.17339 22.8857 3.67813 22.73L4.28868 22.5417C4.38638 22.5116 4.38638 22.3733 4.28868 22.3432L3.67813 22.1549C3.17339 21.9993 2.77825 21.6041 2.62259 21.0994L2.43431 20.4888C2.40418 20.3911 2.26588 20.3911 2.23575 20.4888ZM18.7939 20.4059L18.6453 20.8879C18.5225 21.2863 18.2106 21.5982 17.8121 21.7211L17.3302 21.8697C17.2531 21.8935 17.2531 22.0026 17.3302 22.0264L17.8121 22.175C18.2106 22.2979 18.5225 22.6098 18.6453 23.0082L18.7939 23.4901C18.8177 23.5672 18.9269 23.5672 18.9507 23.4901L19.0993 23.0082C19.2222 22.6098 19.5341 22.2979 19.9325 22.175L20.4144 22.0264C20.4915 22.0026 20.4915 21.8935 20.4144 21.8697L19.9325 21.7211C19.5341 21.5982 19.2222 21.2863 19.0993 20.8879L18.9507 20.4059C18.9269 20.3288 18.8177 20.3288 18.7939 20.4059ZM23.3834 7.23752L23.213 7.7902C23.0721 8.24711 22.7144 8.6048 22.2575 8.74571L21.7048 8.91615C21.6163 8.94342 21.6163 9.06861 21.7048 9.09588L22.2575 9.26633C22.7144 9.40723 23.0721 9.76492 23.213 10.2218L23.3834 10.7745C23.4107 10.863 23.5359 10.863 23.5631 10.7745L23.7336 10.2218C23.8745 9.76492 24.2322 9.40723 24.6891 9.26633L25.2418 9.09588C25.3302 9.06861 25.3302 8.94342 25.2418 8.91615L24.6891 8.74571C24.2322 8.6048 23.8745 8.24711 23.7336 7.7902L23.5631 7.23752C23.5359 7.14908 23.4107 7.14908 23.3834 7.23752ZM3.35852 3.18938L3.18617 3.74825C3.04368 4.21027 2.68199 4.57196 2.21997 4.71445L1.6611 4.8868C1.57167 4.91438 1.57167 5.04097 1.6611 5.06855L2.21997 5.2409C2.68199 5.38339 3.04368 5.74508 3.18617 6.2071L3.35852 6.76597C3.3861 6.8554 3.51269 6.8554 3.54027 6.76597L3.71262 6.2071C3.85511 5.74508 4.2168 5.38339 4.67882 5.2409L5.23769 5.06855C5.32712 5.04097 5.32712 4.91438 5.23769 4.8868L4.67882 4.71445C4.2168 4.57196 3.85511 4.21027 3.71262 3.74825L3.54027 3.18938C3.51269 3.09995 3.3861 3.09995 3.35852 3.18938Z" fill="#009DFF"/>
</g>
<defs>
<clipPath id="clip0_185_957">
<rect width="25" height="25" fill="white" transform="translate(0 0.5)"/>
</clipPath>
</defs>
</svg>
