<svg width="25" height="26" viewBox="0 0 25 26" fill="none" xmlns="http://www.w3.org/2000/svg">
<g clip-path="url(#clip0_185_948)">
<path d="M21.1996 12.3818C21.3248 12.5138 21.3821 12.704 21.33 12.8942C20.9076 14.426 20.2818 16.1322 19.5256 17.8278C17.7263 21.874 14.5086 25.9149 13.1735 25.9149C13.0953 25.9149 13.0223 25.9044 12.9545 25.8727C12.7511 25.7776 12.1201 25.4924 12.5999 22.2226C12.7876 20.9655 13.2883 18.4247 14.5608 15.5617C15.3222 13.8608 16.1722 12.2603 17.0223 10.9239C17.1266 10.7654 17.3039 10.6809 17.4812 10.6862C17.7472 10.1368 18.0393 9.5399 18.3261 8.95886C18.7485 9.49766 19.2909 9.93078 19.9271 10.216C20.4799 10.4696 21.0953 10.6069 21.7055 10.6069C21.7785 10.6069 21.8515 10.6069 21.9245 10.6016C21.6846 11.1985 21.4291 11.8166 21.1996 12.3818Z" fill="#009DFF"/>
<path d="M25.3245 4.09915C25.3297 5.3405 25.0794 6.77727 24.7195 7.58547C24.1667 8.8215 22.9672 9.55046 21.7052 9.55046C21.2567 9.55046 20.7925 9.45538 20.3545 9.25465C19.5513 8.89018 18.9412 8.22989 18.6282 7.39528C18.3153 6.56071 18.3414 5.65214 18.7065 4.83868C19.4209 3.52866 20.2449 3.29624 20.9699 3.09025C21.7521 2.87366 22.4927 2.66239 23.4001 1.14638C23.5357 0.919213 23.8173 0.829424 24.0572 0.940363C25.1002 1.41575 25.3245 2.92122 25.3245 4.09915Z" fill="#009DFF"/>
<path d="M17.6531 7.77032C17.3142 6.86704 17.2777 5.90041 17.5384 4.99184C17.0743 4.56927 16.5788 4.20479 16.0573 3.88258C14.5189 2.93703 12.7509 2.39298 10.9152 2.356C8.09905 2.30319 5.42888 3.37018 3.41585 5.3669C1.40282 7.36887 0.291992 10.0417 0.291992 12.8994C0.291992 16.84 2.4354 20.4214 5.88262 22.2438C6.2946 22.4656 6.73788 22.5765 7.1864 22.5765C7.7131 22.5765 8.24506 22.4233 8.71962 22.1222C9.58013 21.5729 10.0703 20.6485 10.0391 19.6396C9.9817 17.8964 10.5449 16.4544 11.6244 15.5828C12.2242 15.1021 12.9647 14.8169 13.7887 14.7376C14.5189 13.1318 15.3376 11.6264 16.146 10.3534C16.3024 10.1104 16.511 9.9255 16.7509 9.80399C17.0534 9.18597 17.382 8.50457 17.7001 7.87598C17.6792 7.84428 17.6688 7.8073 17.6531 7.77032ZM6.14857 16.8611C5.19941 16.8611 4.43802 16.0846 4.43802 15.1285C4.43802 14.1724 5.19941 13.396 6.14857 13.396C7.0925 13.396 7.85392 14.1724 7.85392 15.1285C7.85392 16.0846 7.0925 16.8611 6.14857 16.8611ZM7.06643 10.9503C6.11728 10.9503 5.35589 10.1738 5.35589 9.21766C5.35589 8.26157 6.11728 7.47981 7.06643 7.47981C8.01037 7.47981 8.77179 8.26157 8.77179 9.21766C8.77179 10.1738 8.01037 10.9503 7.06643 10.9503ZM13.0534 10.0206C12.1043 10.0206 11.3428 9.23878 11.3428 8.28798C11.3428 7.33189 12.1043 6.55012 13.0534 6.55012C13.9974 6.55012 14.7587 7.33189 14.7587 8.28798C14.7587 9.23878 13.9974 10.0206 13.0534 10.0206Z" fill="#009DFF"/>
</g>
<defs>
<clipPath id="clip0_185_948">
<rect width="25" height="25" fill="white" transform="translate(0 0.5)"/>
</clipPath>
</defs>
</svg>
