<svg width="25" height="26" viewBox="0 0 25 26" fill="none" xmlns="http://www.w3.org/2000/svg">
<g clip-path="url(#clip0_185_942)">
<path d="M25.2862 23.3949C25.2282 23.2709 25.0812 23.2179 24.9572 23.2759C23.6952 23.8219 22.1272 24.5969 20.8032 24.5149C20.4982 24.4589 20.4852 24.3779 20.4382 24.2269C20.4042 23.2849 21.0122 22.2879 21.4622 21.4039C22.1762 20.0829 23.0052 18.7939 23.8032 17.4439C24.4802 16.2979 26.1922 13.6249 23.9762 12.9469C23.1842 12.8259 22.5452 13.1899 21.9662 13.5109C19.1682 15.1569 16.8682 17.5149 14.2582 19.2849C15.7102 16.0999 17.6472 13.0469 19.1322 9.77492C19.9102 8.03792 21.0402 6.16892 21.3902 4.07892C21.6752 2.11092 19.9222 0.900924 18.3412 1.40592C17.1822 1.74892 16.5992 2.18892 15.7112 2.74892C11.0462 6.02192 5.60216 11.2399 1.29016 14.9469C-1.63584 17.7169 2.66016 21.8829 5.34016 18.8929C8.92316 14.8249 12.5262 10.3609 16.7072 6.87592C16.4872 7.31192 16.2592 7.74992 16.0312 8.19392C14.0612 11.9399 11.6212 15.7049 10.3292 19.8759C10.0432 20.8339 9.79316 22.4169 10.8642 23.2809C12.8992 24.6799 14.9032 22.4959 16.2992 21.4699C18.3652 19.7819 20.2712 17.7789 22.3302 16.1369C21.6472 17.6709 20.7572 19.2009 20.1162 20.7589C19.6712 21.9459 19.0472 23.1529 19.3452 24.5289C19.9032 26.1919 22.1122 25.3649 23.1352 24.8559C23.8522 24.5129 24.5272 24.1209 25.1902 23.7129C25.2952 23.6479 25.3382 23.5119 25.2842 23.3969L25.2862 23.3949Z" fill="#009DFF"/>
</g>
<defs>
<clipPath id="clip0_185_942">
<rect width="25" height="25" fill="white" transform="translate(0 0.5)"/>
</clipPath>
</defs>
</svg>
