<svg width="251" height="42" viewBox="0 0 251 42" fill="none" xmlns="http://www.w3.org/2000/svg">
<g clip-path="url(#clip0_52_6381)">
<g clip-path="url(#clip1_52_6381)">
<path d="M18.3211 2.43317C8.35902 2.43317 0.254395 10.5379 0.254395 20.5C0.254395 22.5489 1.91524 24.2097 3.96417 24.2097C6.01309 24.2097 7.67394 22.5489 7.67394 20.5C7.67394 14.6291 12.4503 9.85271 18.3211 9.85271C24.1919 9.85271 28.9685 14.6291 28.9685 20.5C28.9685 25.0669 26.0783 28.9715 22.0309 30.4806V20.5C22.0309 18.451 20.37 16.7902 18.3211 16.7902C16.2722 16.7902 14.6113 18.451 14.6113 20.5V34.857C14.6113 36.9059 16.2722 38.5668 18.3211 38.5668C28.2831 38.5668 36.388 30.4619 36.388 20.5C36.388 10.538 28.2832 2.43317 18.3211 2.43317Z" fill="url(#paint0_linear_52_6381)"/>
<path style="mix-blend-mode:multiply" d="M18.3211 16.7901C16.2722 16.7901 14.6113 18.451 14.6113 20.4999V30.479C16.9963 31.3613 19.6395 31.3626 22.0309 30.4774V20.4999C22.0309 18.451 20.37 16.7901 18.3211 16.7901Z" fill="url(#paint1_linear_52_6381)"/>
</g>
<path d="M80.3047 21.7073C80.3047 25.3492 79.0162 28.547 75.8536 30.3532C73.8038 31.508 71.4904 31.8041 69.2941 31.8041H62.2075C61.944 31.8041 61.739 31.5968 61.739 31.3599V12.0842C61.739 11.8474 61.944 11.6401 62.2075 11.6401H69.6748C72.7496 11.6401 75.59 12.2323 77.9034 14.7195C79.3676 16.2888 80.3047 18.5687 80.3047 21.7073ZM65.9558 15.2228V28.2213H69.0013C70.4947 28.2213 71.8711 27.9844 73.0131 27.4219C75.1215 26.3559 76 24.2833 76 21.7073C76 19.6346 75.4436 18.1542 74.4773 17.1178C73.2767 15.815 71.3732 15.2228 69.0891 15.2228H65.9558Z" fill="white"/>
<path d="M109.33 23.1285C108.744 23.6319 108.159 23.9576 107.544 24.2241L111.878 31.0342C112.083 31.3895 112.112 31.8041 111.614 31.8041H107.954C107.544 31.8041 107.309 31.7448 107.104 31.3599L103.18 24.8162H99.4029V31.3599C99.4029 31.5968 99.2272 31.8041 98.9637 31.8041H95.6546C95.3911 31.8041 95.1861 31.5968 95.1861 31.3599V12.0842C95.1861 11.8474 95.3911 11.6401 95.6546 11.6401H104.205C106.138 11.6401 107.895 11.9954 109.242 13.0021C110.706 14.0977 111.556 15.9927 111.556 18.1838C111.556 20.1084 110.853 21.8257 109.33 23.1285ZM103.854 15.2524H99.4029V21.2039H103.503C104.586 21.2039 105.465 21.1151 106.08 20.7006C106.782 20.2564 107.28 19.4274 107.28 18.243C107.28 17.0586 106.841 16.2888 106.167 15.815C105.523 15.4005 104.732 15.2524 103.854 15.2524Z" fill="white"/>
<path d="M130.122 27.718L128.922 31.3007C128.805 31.656 128.57 31.8041 128.19 31.8041H124.91C124.617 31.8041 124.5 31.656 124.5 31.4487C124.5 31.3599 124.529 31.2711 124.558 31.1526L131.382 12.025C131.469 11.6697 131.704 11.5513 132.084 11.5513H135.569C135.95 11.5513 136.184 11.6697 136.272 12.025L143.007 31.1526C143.036 31.2711 143.066 31.3599 143.066 31.4487C143.066 31.656 142.948 31.8041 142.656 31.8041H139.288C138.878 31.8041 138.644 31.656 138.556 31.3007L137.355 27.718H130.122ZM136.33 24.3129L133.783 16.7329L131.177 24.3129H136.33Z" fill="white"/>
<path d="M176.128 26.504L180.081 12.1435C180.169 11.7881 180.403 11.6401 180.813 11.6401H184.239C184.679 11.6401 184.679 12.025 184.591 12.2619L178.646 31.4487C178.529 31.7744 178.324 31.8929 177.943 31.8929H174.254C173.873 31.8929 173.639 31.7744 173.551 31.4487L169.539 19.5754H169.481L165.674 31.4487C165.557 31.7744 165.352 31.8929 164.971 31.8929H161.252C160.871 31.8929 160.666 31.7744 160.549 31.4487L154.458 12.2619C154.37 12.025 154.341 11.6401 154.78 11.6401H158.236C158.616 11.6401 158.88 11.7881 158.968 12.1435L163.097 26.504H163.155L167.489 12.1435C167.606 11.7881 167.841 11.6401 168.221 11.6401H170.769C171.179 11.6401 171.384 11.7881 171.501 12.1435L176.069 26.504H176.128Z" fill="white"/>
<path d="M200.398 29.761C200.398 31.0638 199.373 32.1001 198.084 32.1001C196.796 32.1001 195.771 31.0638 195.771 29.761C195.771 28.4286 196.796 27.3923 198.084 27.3923C199.373 27.3923 200.398 28.4286 200.398 29.761Z" fill="white"/>
<path d="M215.888 11.6401H219.197C219.461 11.6401 219.636 11.8474 219.636 12.0842V31.3599C219.636 31.5968 219.461 31.8041 219.197 31.8041H215.888C215.625 31.8041 215.42 31.5968 215.42 31.3599V12.0842C215.42 11.8474 215.625 11.6401 215.888 11.6401Z" fill="white"/>
<path d="M234.023 11.6401H250.188C250.451 11.6401 250.656 11.8474 250.656 12.0842V14.986C250.656 15.2228 250.451 15.4301 250.188 15.4301H244.214V31.3599C244.214 31.5968 244.009 31.8041 243.775 31.8041H240.436C240.202 31.8041 239.997 31.5968 239.997 31.3599V15.4301H234.023C233.789 15.4301 233.584 15.2228 233.584 14.986V12.0842C233.584 11.8474 233.789 11.6401 234.023 11.6401Z" fill="white"/>
</g>
<defs>
<linearGradient id="paint0_linear_52_6381" x1="15.9858" y1="92.0491" x2="18.2499" y2="22.6842" gradientUnits="userSpaceOnUse">
<stop stop-color="#12277A"/>
<stop offset="0.047" stop-color="#1E3280"/>
<stop offset="0.523" stop-color="#959FC3"/>
<stop offset="0.85" stop-color="#E1E4EE"/>
<stop offset="1" stop-color="white"/>
</linearGradient>
<linearGradient id="paint1_linear_52_6381" x1="7.4205" y1="37.9083" x2="20.6521" y2="22.018" gradientUnits="userSpaceOnUse">
<stop stop-color="#1B3E6B"/>
<stop offset="0.013" stop-color="#1E406D"/>
<stop offset="0.506" stop-color="#95A6BA"/>
<stop offset="0.845" stop-color="#E1E5EB"/>
<stop offset="1" stop-color="white"/>
</linearGradient>
<clipPath id="clip0_52_6381">
<rect width="250" height="42" fill="white" transform="translate(0.374268)"/>
</clipPath>
<clipPath id="clip1_52_6381">
<rect width="36.4577" height="36.4577" fill="white" transform="translate(0.0924072 2.27112)"/>
</clipPath>
</defs>
</svg>
